<svg width="42" height="42" viewBox="0 0 42 42" fill="none" xmlns="http://www.w3.org/2000/svg">
<rect width="42" height="42" rx="12" fill="#D74030" fill-opacity="0.1"/>
<path d="M20.8696 17.0869C24.1174 17.0869 26.7391 19.7086 26.7391 22.9565V29.9999H15V22.9565C15 19.7086 17.6217 17.0869 20.8696 17.0869Z" stroke="#D74030" stroke-width="1.8" stroke-miterlimit="10"/>
<mask id="path-3-inside-1_584_33926" fill="white">
<path d="M18.9131 17.4782V15.1304H22.8261V17.4782"/>
</mask>
<path d="M18.9131 15.1304V13.1304H16.9131V15.1304H18.9131ZM22.8261 15.1304H24.8261V13.1304H22.8261V15.1304ZM20.9131 17.4782V15.1304H16.9131V17.4782H20.9131ZM18.9131 17.1304H22.8261V13.1304H18.9131V17.1304ZM20.8261 15.1304V17.4782H24.8261V15.1304H20.8261Z" fill="#D74030" mask="url(#path-3-inside-1_584_33926)"/>
<path d="M20.8694 15.1304V12" stroke="#D74030" stroke-width="1.8" stroke-miterlimit="10"/>
<path d="M24 12L16 12" stroke="#D74030" stroke-width="1.8" stroke-miterlimit="10"/>
</svg>
