<svg width="32" height="32" viewBox="0 0 32 32" fill="none" xmlns="http://www.w3.org/2000/svg">
<path opacity="0.25" d="M1.33325 8C1.33325 5.79086 3.12411 4 5.33325 4H26.6666C28.8757 4 30.6666 5.79086 30.6666 8V24C30.6666 26.2091 28.8757 28 26.6666 28H5.33325C3.12411 28 1.33325 26.2091 1.33325 24V8Z" fill="white"/>
<path d="M10.6667 20.6665C10.6667 21.7711 9.77132 22.6665 8.66675 22.6665C7.56218 22.6665 6.66675 21.7711 6.66675 20.6665C6.66675 19.5619 7.56218 18.6665 8.66675 18.6665C9.77132 18.6665 10.6667 19.5619 10.6667 20.6665Z" fill="white"/>
<path d="M17.3333 20.6665C17.3333 21.7711 16.4378 22.6665 15.3333 22.6665C14.2287 22.6665 13.3333 21.7711 13.3333 20.6665C13.3333 19.5619 14.2287 18.6665 15.3333 18.6665C16.4378 18.6665 17.3333 19.5619 17.3333 20.6665Z" fill="white"/>
<path d="M1.33325 10.6665H30.6666V13.3332H1.33325V10.6665Z" fill="white"/>
</svg>
