<svg width="24" height="24" viewBox="0 0 24 24" fill="none" xmlns="http://www.w3.org/2000/svg">
<path d="M16.7917 3.42847C18.7021 3.42847 19.3949 3.62738 20.0933 4.00089C20.7917 4.37441 21.3398 4.92253 21.7134 5.62094C22.0869 6.31935 22.2858 7.01211 22.2858 8.92251V15.0773C22.2858 16.9877 22.0869 17.6804 21.7134 18.3788C21.3398 19.0773 20.7917 19.6254 20.0933 19.9989C19.3949 20.3724 18.7021 20.5713 16.7917 20.5713H7.20839C5.298 20.5713 4.60524 20.3724 3.90683 19.9989C3.20842 19.6254 2.6603 19.0773 2.28678 18.3788C1.91327 17.6804 1.71436 16.9877 1.71436 15.0773V8.92251C1.71436 7.01211 1.91327 6.31935 2.28678 5.62094C2.6603 4.92253 3.20842 4.37441 3.90683 4.00089C4.60524 3.62738 5.298 3.42847 7.20839 3.42847H16.7917ZM20.5706 11.1428H3.42778L3.42864 15.5606C3.42864 16.7069 3.54799 17.1225 3.7721 17.5416C3.99621 17.9606 4.32508 18.2895 4.74412 18.5136C5.13698 18.7237 5.52686 18.8417 6.51853 18.8556L6.72506 18.857H17.2751C18.4213 18.857 18.837 18.7377 19.256 18.5136C19.6751 18.2895 20.0039 17.9606 20.228 17.5416C20.4381 17.1487 20.5562 16.7588 20.5701 15.7672L20.5715 15.5606L20.5706 11.1428ZM7.49612 13.7142C7.85008 13.7142 7.99332 13.754 8.133 13.8287C8.27269 13.9034 8.38231 14.013 8.45701 14.1527C8.53172 14.2924 8.5715 14.4356 8.5715 14.7896V15.2102C8.5715 15.5642 8.53172 15.7074 8.45701 15.8471C8.38231 15.9868 8.27269 16.0964 8.133 16.1711C7.99332 16.2458 7.85008 16.2856 7.49612 16.2856H7.07544C6.72148 16.2856 6.57825 16.2458 6.43856 16.1711C6.29888 16.0964 6.18926 15.9868 6.11455 15.8471C6.03985 15.7074 6.00007 15.5642 6.00007 15.2102V14.7896C6.00007 14.4356 6.03985 14.2924 6.11455 14.1527C6.18926 14.013 6.29888 13.9034 6.43856 13.8287C6.57825 13.754 6.72148 13.7142 7.07544 13.7142H7.49612ZM17.2751 5.14275H6.72506C5.57883 5.14275 5.16317 5.2621 4.74412 5.48621C4.32508 5.71032 3.99621 6.03919 3.7721 6.45824C3.562 6.85109 3.44397 7.24097 3.43004 8.23264L3.42864 8.43918L3.42778 8.57132H20.5706L20.5715 8.43918C20.5715 7.29294 20.4521 6.87728 20.228 6.45824C20.0039 6.03919 19.6751 5.71032 19.256 5.48621C18.8632 5.27611 18.4733 5.15808 17.4816 5.14415L17.2751 5.14275Z" fill="#BF4040"/>
</svg>
