<svg width="42" height="42" viewBox="0 0 42 42" fill="none" xmlns="http://www.w3.org/2000/svg">
<rect width="42" height="42" rx="12" fill="#AC2ED3" fill-opacity="0.1"/>
<g clip-path="url(#clip0_584_33888)">
<path d="M27.3 24.6C26.766 24.6 26.244 24.7584 25.8 25.055C25.3559 25.3517 25.0099 25.7734 24.8055 26.2668C24.6012 26.7601 24.5477 27.303 24.6519 27.8267C24.7561 28.3505 25.0132 28.8316 25.3908 29.2092C25.7684 29.5868 26.2495 29.8439 26.7733 29.9481C27.297 30.0523 27.8399 29.9988 28.3332 29.7945C28.8266 29.5901 29.2483 29.2441 29.545 28.8C29.8416 28.356 30 27.834 30 27.3C30 26.5839 29.7155 25.8972 29.2092 25.3908C28.7028 24.8845 28.0161 24.6 27.3 24.6V24.6ZM27.3 28.2C27.122 28.2 26.948 28.1472 26.8 28.0483C26.652 27.9494 26.5366 27.8089 26.4685 27.6444C26.4004 27.48 26.3826 27.299 26.4173 27.1244C26.452 26.9498 26.5377 26.7895 26.6636 26.6636C26.7895 26.5377 26.9498 26.452 27.1244 26.4173C27.299 26.3826 27.48 26.4004 27.6444 26.4685C27.8089 26.5366 27.9494 26.652 28.0483 26.8C28.1472 26.948 28.2 27.122 28.2 27.3C28.2 27.5387 28.1052 27.7676 27.9364 27.9364C27.7676 28.1052 27.5387 28.2 27.3 28.2ZM18.3 24.6C17.766 24.6 17.244 24.7584 16.8 25.055C16.3559 25.3517 16.0099 25.7734 15.8055 26.2668C15.6012 26.7601 15.5477 27.303 15.6519 27.8267C15.7561 28.3505 16.0132 28.8316 16.3908 29.2092C16.7684 29.5868 17.2495 29.8439 17.7733 29.9481C18.297 30.0523 18.8399 29.9988 19.3332 29.7945C19.8266 29.5901 20.2483 29.2441 20.545 28.8C20.8416 28.356 21 27.834 21 27.3C21 26.5839 20.7155 25.8972 20.2092 25.3908C19.7028 24.8845 19.0161 24.6 18.3 24.6V24.6ZM18.3 28.2C18.122 28.2 17.948 28.1472 17.8 28.0483C17.652 27.9494 17.5366 27.8089 17.4685 27.6444C17.4004 27.48 17.3826 27.299 17.4173 27.1244C17.452 26.9498 17.5377 26.7895 17.6636 26.6636C17.7895 26.5377 17.9498 26.452 18.1244 26.4173C18.299 26.3826 18.48 26.4004 18.6444 26.4685C18.8089 26.5366 18.9494 26.652 19.0483 26.8C19.1472 26.948 19.2 27.122 19.2 27.3C19.2 27.5387 19.1052 27.7676 18.9364 27.9364C18.7676 28.1052 18.5387 28.2 18.3 28.2ZM30 17.85C29.9976 16.2992 29.3805 14.8126 28.2839 13.7161C27.1874 12.6195 25.7008 12.0024 24.15 12H23.7C23.4613 12 23.2324 12.0948 23.0636 12.2636C22.8948 12.4324 22.8 12.6613 22.8 12.9V17.4H16.968L15.843 14.385C15.7786 14.2127 15.6631 14.0643 15.5118 13.9597C15.3606 13.8551 15.1809 13.7994 14.997 13.8H12.9C12.6613 13.8 12.4324 13.8948 12.2636 14.0636C12.0948 14.2324 12 14.4613 12 14.7C12 14.9387 12.0948 15.1676 12.2636 15.3364C12.4324 15.5052 12.6613 15.6 12.9 15.6H14.376L15.501 18.633L15.96 19.866V19.947C16.3793 21.0604 17.131 22.0178 18.1132 22.6892C19.0954 23.3606 20.2604 23.7135 21.45 23.7H24.15C24.9186 23.7012 25.6798 23.5507 26.3901 23.2571C27.1004 22.9635 27.7458 22.5327 28.2892 21.9892C28.8327 21.4458 29.2635 20.8004 29.5571 20.0901C29.8507 19.3798 30.0012 18.6186 30 17.85V17.85ZM27.012 20.712C26.6372 21.0894 26.1912 21.3887 25.7 21.5926C25.2087 21.7965 24.6819 21.901 24.15 21.9H21.45C20.6455 21.9025 19.8588 21.6637 19.1913 21.2144C18.5239 20.7652 18.0066 20.1262 17.706 19.38C17.7021 19.3622 17.7021 19.3438 17.706 19.326L17.634 19.2H27.966C27.7698 19.7713 27.4431 20.2889 27.012 20.712V20.712ZM24.6 17.4V13.8C25.5219 13.8962 26.3828 14.3063 27.0382 14.9618C27.6937 15.6172 28.1038 16.4781 28.2 17.4H24.6Z" fill="#AC2ED3"/>
</g>
<defs>
<clipPath id="clip0_584_33888">
<rect width="18" height="18" fill="white" transform="translate(12 12)"/>
</clipPath>
</defs>
</svg>
