<svg width="42" height="42" viewBox="0 0 42 42" fill="none" xmlns="http://www.w3.org/2000/svg">
<rect width="42" height="42" rx="12" fill="#EBCA4F" fill-opacity="0.1"/>
<path d="M15.2399 25.64C17.6258 25.64 19.5599 23.7059 19.5599 21.32C19.5599 18.9341 17.6258 17 15.2399 17C12.854 17 10.9199 18.9341 10.9199 21.32C10.9199 23.7059 12.854 25.64 15.2399 25.64Z" stroke="#EBCA4F" stroke-width="1.8" stroke-miterlimit="10"/>
<path d="M26.7602 25.64C29.146 25.64 31.0802 23.7059 31.0802 21.32C31.0802 18.9341 29.146 17 26.7602 17C24.3743 17 22.4402 18.9341 22.4402 21.32C22.4402 23.7059 24.3743 25.64 26.7602 25.64Z" stroke="#EBCA4F" stroke-width="1.8" stroke-miterlimit="10"/>
<path d="M22.9198 19.4001C22.4878 18.7281 21.7678 18.3921 20.9998 18.4401C20.2318 18.3921 19.5118 18.7281 19.0798 19.4001" stroke="#EBCA4F" stroke-width="1.8" stroke-miterlimit="10"/>
<path d="M31.0801 21.3201H33.0001" stroke="#EBCA4F" stroke-width="1.8" stroke-miterlimit="10"/>
<path d="M9 21.3201H10.92" stroke="#EBCA4F" stroke-width="1.8" stroke-miterlimit="10"/>
</svg>
