<svg width="24" height="24" viewBox="0 0 24 24" fill="none" xmlns="http://www.w3.org/2000/svg">
<path fill-rule="evenodd" clip-rule="evenodd" d="M5.99998 8.9001C6.08043 8.9001 6.15841 8.88954 6.23263 8.86974C6.60205 10.0465 7.70133 10.9001 8.99998 10.9001C10.2986 10.9001 11.3979 10.0465 11.7673 8.86973C11.8415 8.88954 11.9195 8.9001 12 8.9001H20C20.497 8.9001 20.9 8.49715 20.9 8.0001C20.9 7.50304 20.497 7.1001 20 7.1001H12C11.9195 7.1001 11.8415 7.11066 11.7673 7.13046C11.3979 5.95371 10.2986 5.1001 8.99998 5.1001C7.70133 5.1001 6.60205 5.95371 6.23263 7.13046C6.15841 7.11065 6.08043 7.1001 5.99998 7.1001H3.99998C3.50292 7.1001 3.09998 7.50304 3.09998 8.0001C3.09998 8.49715 3.50292 8.9001 3.99998 8.9001H5.99998ZM8.99998 6.9001C8.39246 6.9001 7.89998 7.39258 7.89998 8.0001C7.89998 8.60761 8.39246 9.1001 8.99998 9.1001C9.60749 9.1001 10.1 8.60761 10.1 8.0001C10.1 7.39258 9.60749 6.9001 8.99998 6.9001Z" fill="#BF4040"/>
<path fill-rule="evenodd" clip-rule="evenodd" d="M3.09998 16.0001C3.09998 15.503 3.50292 15.1001 3.99998 15.1001H12C12.0804 15.1001 12.1584 15.1107 12.2326 15.1305C12.6021 13.9537 13.7013 13.1001 15 13.1001C16.2986 13.1001 17.3979 13.9537 17.7673 15.1305C17.8415 15.1107 17.9195 15.1001 18 15.1001H20C20.497 15.1001 20.9 15.503 20.9 16.0001C20.9 16.4972 20.497 16.9001 20 16.9001H18C17.9195 16.9001 17.8415 16.8895 17.7673 16.8697C17.3979 18.0465 16.2986 18.9001 15 18.9001C13.7013 18.9001 12.6021 18.0465 12.2326 16.8697C12.1584 16.8895 12.0804 16.9001 12 16.9001H3.99998C3.50292 16.9001 3.09998 16.4972 3.09998 16.0001ZM13.9 16.0001C13.9 15.3926 14.3925 14.9001 15 14.9001C15.6075 14.9001 16.1 15.3926 16.1 16.0001C16.1 16.6076 15.6075 17.1001 15 17.1001C14.3925 17.1001 13.9 16.6076 13.9 16.0001Z" fill="#BF4040"/>
</svg>
