<svg width="42" height="42" viewBox="0 0 42 42" fill="none" xmlns="http://www.w3.org/2000/svg">
<rect width="42" height="42" rx="12" fill="#E43C59" fill-opacity="0.1"/>
<path d="M18.4493 18.0173L18.4475 18.0188L18.4458 18.0205L18.4493 18.0173ZM26.5493 17.8655C26.4927 17.811 26.4299 17.7632 26.3622 17.7233C26.2663 17.6668 26.1599 17.6307 26.0495 17.617C25.9391 17.6034 25.827 17.6125 25.7203 17.6439C25.6136 17.6752 25.5144 17.7281 25.4289 17.7993C25.3435 17.8705 25.2735 17.9585 25.2234 18.0578C24.9431 18.6101 24.5565 19.1016 24.0858 19.5041C24.1578 19.0985 24.1941 18.6875 24.1943 18.2756C24.1958 17.0225 23.8652 15.7914 23.2362 14.7076C22.6073 13.6239 21.7023 12.7261 20.6135 12.1058C20.4936 12.0378 20.3584 12.0014 20.2205 12C20.0826 11.9986 19.9467 12.0323 19.8254 12.0978C19.7041 12.1634 19.6014 12.2586 19.527 12.3747C19.4526 12.4908 19.409 12.6239 19.4001 12.7614C19.3546 13.533 19.1529 14.2873 18.8072 14.9786C18.4615 15.6699 17.9791 16.2838 17.3892 16.7832L17.2017 16.9358C16.5848 17.3509 16.0388 17.8625 15.5846 18.4512C14.8785 19.3407 14.3894 20.3825 14.156 21.4939C13.9226 22.6053 13.9514 23.7558 14.2401 24.8542C14.5288 25.9525 15.0694 26.9685 15.819 27.8216C16.5687 28.6747 17.5068 29.3413 18.559 29.7688C18.6825 29.8192 18.8166 29.8385 18.9494 29.825C19.0821 29.8114 19.2095 29.7653 19.3203 29.6909C19.431 29.6165 19.5218 29.5159 19.5845 29.3981C19.6472 29.2803 19.68 29.1489 19.6799 29.0154C19.6793 28.9291 19.6656 28.8434 19.6394 28.7611C19.4573 28.0768 19.4049 27.3644 19.4848 26.6608C20.2548 28.1131 21.4908 29.2643 22.994 29.9293C23.1775 30.0114 23.3849 30.0224 23.5761 29.9603C24.7638 29.5769 25.8337 28.8963 26.6843 27.9829C27.5348 27.0696 28.1377 25.954 28.4356 24.742C28.7335 23.5301 28.7166 22.2621 28.3865 21.0585C28.0563 19.855 27.4239 18.7558 26.5493 17.8655ZM23.3719 28.3066C22.6625 27.9471 22.0368 27.4423 21.5354 26.8252C21.034 26.208 20.668 25.4921 20.4614 24.7242C20.3983 24.4657 20.3495 24.2038 20.3152 23.9399C20.292 23.7718 20.2168 23.6152 20.1001 23.492C19.9835 23.3687 19.8313 23.285 19.6648 23.2525C19.6135 23.2424 19.5613 23.2374 19.509 23.2374C19.366 23.2374 19.2255 23.275 19.1017 23.3466C18.9778 23.4182 18.8751 23.5212 18.8037 23.6451C18.1286 24.8097 17.789 26.1384 17.8227 27.4841C17.2289 27.0224 16.7326 26.4474 16.3626 25.7925C15.9926 25.1376 15.7563 24.4158 15.6674 23.6688C15.5784 22.9219 15.6386 22.1648 15.8444 21.4413C16.0502 20.7178 16.3976 20.0423 16.8664 19.4541C17.2223 18.9917 17.6517 18.5909 18.1374 18.2677C18.1584 18.2541 18.1786 18.2392 18.1978 18.2231C18.1978 18.2231 18.4392 18.0234 18.4475 18.0188C19.6068 17.0382 20.4314 15.7204 20.8063 14.249C21.6929 15.0687 22.2841 16.1581 22.4881 17.3482C22.692 18.5382 22.4974 19.7623 21.9343 20.8304C21.8599 20.973 21.8294 21.1343 21.8466 21.2942C21.8638 21.454 21.928 21.6052 22.031 21.7286C22.134 21.852 22.2713 21.9422 22.4255 21.9877C22.5797 22.0332 22.7439 22.032 22.8974 21.9843C24.1439 21.5936 25.2407 20.8304 26.0403 19.7974C26.5209 20.5072 26.835 21.3163 26.9594 22.1644C27.0838 23.0125 27.0152 23.8778 26.7587 24.6957C26.5022 25.5136 26.0644 26.2631 25.478 26.8883C24.8916 27.5135 24.1717 27.9983 23.3718 28.3066L23.3719 28.3066Z" fill="#E43C59"/>
</svg>
