<svg width="24" height="24" viewBox="0 0 24 24" fill="none" xmlns="http://www.w3.org/2000/svg">
<path d="M12.0021 3.60918C13.4122 1.06975 16.0769 0.759932 17.6 2.28301C18.8445 3.52747 18.8653 5.53673 17.4524 7.00115L18 7.00011C20.2091 7.00011 22 8.79097 22 11.0001V11.4296C22 12.4365 21.8608 12.9765 21.5993 13.4654C21.3378 13.9543 20.9542 14.3379 20.4653 14.5994C20.319 14.6776 20.1682 14.7449 20.0016 14.8008L20 16.8723C20 18.6554 19.8143 19.3019 19.4657 19.9538C19.1171 20.6056 18.6055 21.1172 17.9537 21.4658C17.3018 21.8145 16.6553 22.0001 14.8722 22.0001H9.12777C7.34473 22.0001 6.69816 21.8145 6.04631 21.4658C5.39446 21.1172 4.88288 20.6056 4.53427 19.9538C4.18565 19.3019 4 18.6554 4 16.8723L3.99936 14.8011C3.83242 14.7452 3.68128 14.6778 3.53473 14.5994C3.04584 14.3379 2.66216 13.9543 2.4007 13.4654C2.16103 13.0172 2.02406 12.5261 2.00289 11.6718L2 11.0001C2 8.79097 3.79086 7.00011 6 7.00011L6.55091 7.00115C5.13799 5.53673 5.1588 3.52747 6.40326 2.28301C7.92752 0.758752 10.5952 1.07024 12.0021 3.60918ZM11.1 15.0001H5.799L5.801 17.1156L5.80931 17.543C5.83686 18.3895 5.92843 18.7439 6.12153 19.1049C6.30238 19.4431 6.55702 19.6977 6.89519 19.8786C7.3118 20.1014 7.71955 20.189 8.88446 20.1991H11.1V15.0001ZM18.2 15.0001H12.9V20.1991H15.1155L15.5429 20.1908C16.3893 20.1632 16.7437 20.0717 17.1048 19.8786C17.443 19.6977 17.6976 19.4431 17.8785 19.1049C18.1013 18.6883 18.1889 18.2806 18.199 17.1156L18.2 15.0001ZM18 8.80011L12.9116 8.8008C12.908 8.80105 12.9044 8.80129 12.9007 8.80154L12.9 13.1991H18.524L18.6185 13.1984C19.1524 13.1879 19.3971 13.1294 19.6164 13.0121C19.7916 12.9184 19.9183 12.7917 20.012 12.6165C20.1293 12.3972 20.1877 12.1525 20.1983 11.6186L20.2 11.0001C20.2 9.78508 19.215 8.80011 18 8.80011ZM11.0917 8.8008L6 8.80011C4.78497 8.80011 3.8 9.78508 3.8 11.0001L3.80174 11.6186C3.81225 12.1525 3.87066 12.3972 3.98796 12.6165C4.08166 12.7917 4.2084 12.9184 4.38361 13.0121C4.61506 13.1359 4.87468 13.1941 5.47271 13.1997L11.1 13.1991L11.1006 8.8014C11.0976 8.8012 11.0946 8.801 11.0917 8.8008ZM7.67606 3.5558C6.60685 4.62501 7.59914 6.63214 10.8488 6.97472L11.0972 6.9961C11.0981 6.98268 11.099 6.96928 11.0999 6.9559L11.103 6.99795C10.8434 3.53831 8.87416 2.3577 7.67606 3.5558ZM16.3272 3.5558C15.1291 2.3577 13.1599 3.53831 12.9002 6.99795L12.9037 6.96095C12.9045 6.97265 12.9053 6.98436 12.906 6.9961L13.1545 6.97472C16.4041 6.63214 17.3964 4.62501 16.3272 3.5558Z" fill="#BF4040"/>
</svg>
