<svg width="24" height="24" viewBox="0 0 24 24" fill="none" xmlns="http://www.w3.org/2000/svg">
<path d="M17.4959 3.30404L17.6007 3.3714C17.6304 3.39075 17.6601 3.41025 17.6896 3.42989L17.601 3.37148C17.6713 3.41719 17.7409 3.46373 17.81 3.5111L17.6896 3.42989C17.7647 3.47982 17.839 3.5307 17.9126 3.58252L17.81 3.5111C17.8817 3.56024 17.9527 3.61026 18.023 3.66115L18.0229 3.6612C18.1295 3.73823 18.2345 3.8173 18.3379 3.8983C18.4645 3.99753 18.5888 4.09974 18.7107 4.20475C18.9114 4.37759 19.1054 4.55827 19.2923 4.74613L19.2154 4.66964C19.2709 4.72429 19.3258 4.77957 19.3801 4.83546L19.2923 4.74613C19.3599 4.81407 19.4265 4.88294 19.4922 4.95274L19.3801 4.83546C19.4428 4.90004 19.5046 4.96543 19.5656 5.03163L19.4922 4.95274C19.548 5.01202 19.6031 5.07197 19.6574 5.13256L19.5656 5.03163C19.6254 5.0965 19.6844 5.16215 19.7425 5.22854L19.6574 5.13256C19.7156 5.19734 19.7729 5.26286 19.8294 5.32911L19.7425 5.22854C19.8008 5.29518 19.8583 5.36258 19.9149 5.43073L19.8294 5.32911C19.887 5.39665 19.9438 5.46494 19.9996 5.53397L19.9994 5.53377C20.2392 5.83006 20.4628 6.13971 20.6688 6.4616L20.5941 6.34652C20.6522 6.43469 20.709 6.5238 20.7644 6.61384L20.6688 6.4616C20.7134 6.53127 20.7572 6.60151 20.8002 6.67232L20.7644 6.61384C20.8013 6.67373 20.8376 6.73403 20.8733 6.79473L20.8002 6.67232C20.8494 6.75347 20.8976 6.83537 20.9446 6.91797L20.9447 6.91815C21.0169 7.04491 21.0865 7.17353 21.1535 7.30376C21.1782 7.35184 21.2024 7.39982 21.2262 7.448C21.2907 7.57852 21.3526 7.71069 21.4117 7.84435C21.6082 8.28875 21.7744 8.75021 21.9072 9.22557L21.9615 9.42784L22.0357 9.73559C22.0443 9.7738 22.0527 9.8121 22.0608 9.85047L22.1184 10.1419L22.1708 10.4572C22.1893 10.5801 22.2056 10.7036 22.2197 10.8279L22.1887 10.5809C22.2037 10.6896 22.217 10.7988 22.2286 10.9086L22.2285 10.9085C22.2549 11.1586 22.2723 11.4112 22.2805 11.6662L22.2805 11.6659L22.2858 12.0001L22.2813 12.306C22.2798 12.3574 22.2779 12.4087 22.2757 12.4599C22.2653 12.697 22.2468 12.9321 22.2206 13.1649L22.2282 13.0951C22.2164 13.2066 22.2028 13.3176 22.1875 13.428L22.2206 13.1649C22.2074 13.2818 22.1922 13.398 22.1752 13.5137L22.1752 13.5138C22.1383 13.7641 22.0923 14.0115 22.0377 14.2557L22.0376 14.256L21.9618 14.5714L21.9072 14.7746C21.751 15.3335 21.5488 15.8732 21.3049 16.3893C21.1793 16.6551 21.0424 16.9152 20.895 17.1683L20.9432 17.0846C20.9028 17.1556 20.8615 17.2261 20.8193 17.2961L20.895 17.1683C20.8483 17.2485 20.8005 17.3281 20.7517 17.4069L20.8193 17.2961C20.7735 17.3722 20.7268 17.4477 20.6791 17.5225L20.7517 17.4069C20.7008 17.4891 20.6488 17.5705 20.5957 17.6512L20.6791 17.5225C20.6463 17.5739 20.6131 17.625 20.5794 17.6758L20.5957 17.6512C20.5572 17.7096 20.5182 17.7676 20.4785 17.8251L20.5794 17.6758C20.5095 17.7812 20.4377 17.8853 20.3641 17.988L20.4785 17.8251C20.4272 17.8997 20.375 17.9735 20.3218 18.0466L20.3217 18.0467C20.0971 18.3552 19.8557 18.6509 19.5989 18.9322L19.6529 18.8726C19.5926 18.9397 19.5315 19.006 19.4695 19.0714L19.5989 18.9322C19.5343 19.003 19.4687 19.0729 19.4022 19.1418L19.4695 19.0714C19.4144 19.1296 19.3587 19.1871 19.3023 19.2439L19.4022 19.1418C19.3399 19.2064 19.2767 19.2702 19.2127 19.3331L19.3023 19.2439C19.2596 19.2869 19.2166 19.3296 19.1732 19.3718L19.1735 19.3715C19.0718 19.4704 18.9685 19.567 18.8632 19.6614C18.6355 19.8655 18.3986 20.0596 18.1533 20.243L18.2182 20.1941C18.1442 20.2503 18.0695 20.3056 17.994 20.3598L18.1533 20.243C18.0878 20.292 18.0218 20.3401 17.9552 20.3875L17.994 20.3598C17.9284 20.4069 17.8622 20.4533 17.7954 20.4989L17.9552 20.3875C17.8693 20.4486 17.7825 20.5084 17.6947 20.5669L17.7954 20.4989C17.74 20.5368 17.6842 20.5741 17.628 20.6109L17.6947 20.5669C17.6249 20.6133 17.5545 20.659 17.4836 20.7038L17.4837 20.7037C17.1583 20.9091 16.8208 21.0967 16.4722 21.2653L16.5811 21.2118C16.4971 21.2537 16.4124 21.2945 16.327 21.3341L16.4722 21.2653C16.3987 21.3008 16.3247 21.3356 16.2501 21.3694L16.327 21.3341C16.2487 21.3705 16.1698 21.4059 16.0904 21.4403L16.2501 21.3694C16.1607 21.4101 16.0705 21.4495 15.9797 21.4876L16.0904 21.4403C16.0004 21.4794 15.9097 21.5172 15.8184 21.5537L15.9797 21.4876C15.909 21.5173 15.8379 21.5462 15.7664 21.5744L15.8184 21.5537C15.7375 21.5861 15.6561 21.6175 15.5741 21.6478L15.7664 21.5744C15.6737 21.6108 15.5804 21.646 15.4865 21.6799L15.5741 21.6478C15.4653 21.6882 15.3557 21.7267 15.2452 21.7634L15.2449 21.7635C15.0788 21.8187 14.9105 21.8698 14.7404 21.9167L14.8483 21.8863C14.7719 21.9083 14.695 21.9294 14.6179 21.9497L14.7404 21.9167C14.6517 21.9412 14.5625 21.9645 14.4729 21.9866L14.6179 21.9497C14.5262 21.9737 14.434 21.9966 14.3413 22.0181L14.4729 21.9866C14.393 22.0063 14.3127 22.0251 14.232 22.043L14.3413 22.0181C14.256 22.038 14.1703 22.0568 14.0841 22.0745L14.232 22.043C14.1328 22.0649 14.0329 22.0854 13.9326 22.1045L14.0841 22.0745C13.9997 22.0919 13.915 22.1082 13.8298 22.1235L13.9326 22.1045C13.8539 22.1195 13.7748 22.1336 13.6954 22.1467L13.6956 22.1467C13.5924 22.1638 13.489 22.1793 13.385 22.1933L13.2826 22.2066L13.0358 22.2343C12.6952 22.2683 12.3496 22.2858 12.0001 22.2858C11.376 22.2858 10.7648 22.2302 10.1713 22.1237L10.2946 22.1456C10.2004 22.1299 10.1066 22.1129 10.0133 22.0946L10.1713 22.1237C10.0962 22.1102 10.0214 22.0959 9.94685 22.0808L9.94665 22.0813C9.77162 22.0453 9.598 22.0054 9.42612 21.9611L9.48811 21.9773C9.40808 21.9572 9.32843 21.9362 9.24916 21.9142L9.42612 21.9611C9.33878 21.9386 9.25189 21.915 9.16546 21.8902L9.16584 21.8908C8.94506 21.8272 8.72768 21.757 8.51359 21.6798L8.75512 21.7638C8.62539 21.7207 8.4968 21.6751 8.36941 21.627L8.51359 21.6798C8.43206 21.6505 8.351 21.6201 8.27044 21.5887L8.36941 21.627C8.27323 21.5907 8.17773 21.553 8.08295 21.5139L8.27044 21.5887C8.19008 21.5575 8.11022 21.5252 8.03086 21.492L8.08295 21.5139C8.01514 21.486 7.9477 21.4573 7.88063 21.4279L8.03086 21.492C7.9488 21.4576 7.86728 21.4222 7.78632 21.3858L7.88063 21.4279C7.79789 21.3917 7.71571 21.3545 7.63411 21.3161L7.78632 21.3858C7.70667 21.35 7.62755 21.3132 7.54899 21.2754L7.63411 21.3161C7.56194 21.2822 7.49024 21.2475 7.419 21.212L7.41902 21.2118C7.29422 21.1499 7.17088 21.0852 7.04904 21.0182C6.9958 20.9887 6.94264 20.9588 6.88977 20.9285C6.71378 20.8277 6.54124 20.7218 6.37217 20.6111L6.5164 20.7037C6.44546 20.6589 6.37511 20.6133 6.30535 20.5668L6.37217 20.6111C6.3117 20.5715 6.25169 20.5312 6.19212 20.4904L6.30535 20.5668C6.22885 20.5158 6.15308 20.4639 6.07804 20.411L6.19212 20.4904C6.11652 20.4386 6.04164 20.3858 5.96752 20.332L6.07804 20.411C6.00228 20.3575 5.92726 20.3031 5.85302 20.2477L5.96752 20.332C5.90509 20.2867 5.84318 20.2407 5.78182 20.1941L5.78193 20.1941C5.55992 20.0254 5.34507 19.848 5.1378 19.6622C5.01846 19.5552 4.9016 19.4454 4.78735 19.3331L4.82662 19.3715C4.7834 19.3295 4.74056 19.287 4.69808 19.2442L4.78735 19.3331C4.72335 19.2701 4.66016 19.2063 4.59781 19.1417L4.69808 19.2442C4.6416 19.1873 4.58577 19.1297 4.53062 19.0714L4.59781 19.1417C4.53146 19.0729 4.46607 19.0033 4.40164 18.9327L4.53062 19.0714C4.46855 19.0059 4.40732 18.9395 4.34697 18.8723L4.34726 18.8726C4.09429 18.5911 3.85687 18.2959 3.63604 17.988L3.67847 18.0467C3.62529 17.9736 3.57305 17.8999 3.52177 17.8254L3.63604 17.988C3.56249 17.8854 3.49078 17.7815 3.42096 17.6762L3.52177 17.8254C3.48207 17.7677 3.44293 17.7096 3.40438 17.6511L3.42096 17.6762C3.38723 17.6253 3.35393 17.5741 3.32108 17.5225L3.40438 17.6511C3.35127 17.5704 3.29926 17.489 3.24837 17.4068L3.32108 17.5225C3.27341 17.4478 3.22668 17.3724 3.1809 17.2963L3.24837 17.4068C3.19966 17.3281 3.15198 17.2487 3.10534 17.1687L3.1809 17.2963C3.13866 17.2261 3.09723 17.1554 3.05663 17.0841L3.0569 17.0846C2.907 16.8215 2.76861 16.5516 2.64211 16.2751L2.69522 16.3893C2.65716 16.3088 2.62013 16.2277 2.58412 16.146L2.58387 16.1455C2.38934 15.7043 2.22473 15.2463 2.0929 14.7746L2.03838 14.5714L1.96252 14.256C1.95524 14.2235 1.94812 14.1909 1.94115 14.1583C1.8898 13.9177 1.84689 13.6743 1.8127 13.4282L1.82496 13.5138C1.80788 13.398 1.79273 13.2816 1.77954 13.1645L1.8127 13.4282C1.79737 13.3178 1.78378 13.2068 1.77198 13.0953L1.77195 13.0951C1.74515 12.8418 1.72752 12.5855 1.71945 12.3269L1.71947 12.3274L1.71436 12.0001L1.71968 11.6659C1.72102 11.6239 1.72261 11.582 1.72445 11.5402C1.735 11.3005 1.75374 11.0631 1.78041 10.828L1.77159 10.9085C1.78317 10.7987 1.79648 10.6895 1.81149 10.5807L1.81147 10.5809L1.82929 10.4572L1.88176 10.1419C1.90662 10.0056 1.93418 9.87029 1.96436 9.73592L1.96444 9.73559L2.03861 9.42784L2.0929 9.22557C2.22575 8.75021 2.39189 8.28875 2.58864 7.84386L2.57061 7.88487C2.63507 7.73739 2.70289 7.5917 2.77396 7.44792C2.79774 7.39982 2.82193 7.35184 2.84648 7.30408C2.93542 7.13108 3.02894 6.96123 3.12703 6.7944L3.05543 6.91815C3.10252 6.83543 3.15074 6.75343 3.20004 6.67217L3.12703 6.7944C3.16261 6.73389 3.19879 6.67377 3.23556 6.61407L3.20004 6.67217C3.24305 6.60129 3.28688 6.53098 3.33153 6.46124L3.23556 6.61407C3.29103 6.52398 3.34786 6.43482 3.40601 6.34661L3.40607 6.34652C3.61565 6.02857 3.84246 5.72286 4.08514 5.4308L4.00279 5.53118C4.05793 5.4631 4.11392 5.39574 4.17074 5.32911L4.08514 5.4308C4.1418 5.36261 4.19932 5.29516 4.25769 5.22848L4.17074 5.32911C4.22721 5.2629 4.28451 5.19741 4.34262 5.13266L4.25769 5.22848C4.31586 5.16203 4.37487 5.09633 4.4347 5.03141L4.34262 5.13266C4.39699 5.07207 4.45208 5.01213 4.50786 4.95285L4.4347 5.03141C4.49565 4.96527 4.55746 4.89994 4.6201 4.83543L4.50786 4.95285C4.57364 4.88294 4.6404 4.81395 4.7081 4.7459L4.6201 4.83543C4.67425 4.77966 4.72902 4.72451 4.78441 4.66998L4.78476 4.66964C4.94784 4.50909 5.11663 4.35361 5.29048 4.20386C5.4119 4.09926 5.53598 3.9973 5.66244 3.89824C5.79852 3.79164 5.93753 3.68826 6.07918 3.58838L5.97722 3.6612C6.06489 3.59777 6.1536 3.53569 6.24332 3.47499L6.07918 3.58838C6.1445 3.54231 6.21038 3.49699 6.27681 3.45243L6.24332 3.47499C6.31053 3.42952 6.3783 3.38482 6.44663 3.34091L6.27681 3.45243C6.35136 3.40241 6.4266 3.35334 6.50251 3.30525L6.50259 3.3052C6.62978 3.22461 6.75894 3.14669 6.88992 3.07156C6.94264 3.04132 6.9958 3.01145 7.04926 2.98204C7.20043 2.89888 7.3538 2.81946 7.50937 2.74384L7.43691 2.77941C7.50947 2.74344 7.58251 2.70829 7.65603 2.67399L7.50937 2.74384C7.59614 2.70167 7.6836 2.66067 7.77172 2.62089L7.65603 2.67399C7.73716 2.63614 7.81887 2.59931 7.90113 2.56353L7.77172 2.62089C7.85296 2.5842 7.93476 2.54854 8.01711 2.51393L8.01707 2.51394C8.15537 2.45581 8.29516 2.40062 8.43641 2.34845C8.54171 2.30956 8.64795 2.27229 8.75497 2.23674L8.62313 2.28154C8.69499 2.25657 8.76721 2.23238 8.83979 2.20897L8.75497 2.23674C8.83637 2.2097 8.91823 2.18364 9.00052 2.15859L8.83979 2.20897C8.93706 2.1776 9.03497 2.14763 9.13349 2.1191L9.00052 2.15859C9.08702 2.13226 9.174 2.10704 9.26144 2.08295L9.13349 2.1191C9.21971 2.09413 9.30639 2.07026 9.39353 2.0475L9.26144 2.08295C9.34957 2.05867 9.43817 2.03553 9.52722 2.01355L9.39353 2.0475C9.48004 2.02491 9.567 2.00341 9.65438 1.98303L9.52722 2.01355C9.6114 1.99277 9.69599 1.97304 9.78097 1.95435L9.65438 1.98303C9.73843 1.96343 9.82287 1.94485 9.9077 1.92732L9.78097 1.95435C9.87798 1.93302 9.97549 1.91306 10.0735 1.89448L9.9077 1.92732C9.99485 1.90931 10.0824 1.8924 10.1703 1.87661L10.0735 1.89448C10.1503 1.87994 10.2274 1.86624 10.3047 1.85341L10.3045 1.85344C10.4077 1.83633 10.5112 1.82079 10.6151 1.8068L10.7175 1.79354L10.9644 1.76585C11.305 1.73179 11.6505 1.71436 12.0001 1.71436C12.6242 1.71436 13.2353 1.76994 13.8288 1.87644L13.7055 1.8545C13.7997 1.87023 13.8934 1.88723 13.9867 1.9055L13.8288 1.87644C13.9039 1.88992 13.9787 1.90421 14.0533 1.91931L14.0534 1.91879C14.2338 1.95588 14.4126 1.99717 14.5895 2.04305L14.5088 2.02199C14.5863 2.04144 14.6635 2.06177 14.7404 2.08297L14.5895 2.04305C14.6762 2.06555 14.7626 2.08915 14.8484 2.11383L14.8483 2.11337C15.0267 2.16512 15.2031 2.2211 15.3773 2.28164L15.3771 2.2812C15.4996 2.32412 15.6208 2.36885 15.7409 2.41577L15.6008 2.36191C15.6944 2.3969 15.7874 2.43322 15.8797 2.47084L15.7409 2.41577C15.8189 2.44625 15.8965 2.47765 15.9736 2.50997L15.8797 2.47084C15.9532 2.50081 16.0263 2.5316 16.0989 2.56321L15.9736 2.50997C16.0591 2.54582 16.1441 2.58281 16.2284 2.62089L16.0989 2.56321C16.1813 2.59904 16.2631 2.63591 16.3443 2.67382L16.2284 2.62089C16.3165 2.66065 16.4039 2.70161 16.4906 2.74375L16.3443 2.67382C16.4178 2.70815 16.4909 2.74332 16.5635 2.77933L16.5632 2.77941C16.6942 2.84415 16.8233 2.91167 16.9508 2.98181C17.1361 3.08393 17.3178 3.19136 17.4958 3.3041L17.4959 3.30404ZM14.0701 16.1137L9.93025 16.1144C10.3729 17.8666 11.0891 19.4304 11.9997 20.7118C12.911 19.4306 13.6273 17.8664 14.0701 16.1137ZM4.28383 16.1144C5.46063 18.3168 7.55284 19.9565 10.0523 20.5252C9.29949 19.221 8.71575 17.7309 8.34482 16.1145L4.28383 16.1144ZM19.7163 16.1144L15.6555 16.1136C15.2847 17.73 14.701 19.2201 13.9487 20.5243C16.4473 19.9565 18.5395 18.3168 19.7163 16.1144ZM8.06187 9.42815L3.6416 9.42825C3.39171 10.2414 3.25721 11.105 3.25721 12.0001C3.25721 12.8948 3.39162 13.7582 3.64134 14.571L8.06183 14.5717C7.94624 13.7383 7.88578 12.8787 7.88578 12.0001C7.88578 11.1213 7.94625 10.2616 8.06187 9.42815ZM14.3799 9.42763H9.62021C9.49485 10.2556 9.42864 11.1159 9.42864 12.0001C9.42864 12.8839 9.49479 13.7438 9.62005 14.5715L14.3801 14.5717C14.5053 13.744 14.5715 12.884 14.5715 12.0001C14.5715 11.1159 14.5053 10.2556 14.3799 9.42763ZM20.3585 9.42825L15.9383 9.42815C16.0539 10.2616 16.1144 11.1213 16.1144 12.0001C16.1144 12.8785 16.0539 13.7379 15.9384 14.5711L20.3588 14.571C20.6085 13.7582 20.7429 12.8948 20.7429 12.0001C20.7429 11.105 20.6084 10.2414 20.3585 9.42825ZM10.0514 3.47586L9.89906 3.5113C7.46776 4.11105 5.43705 5.72805 4.28429 7.88493L8.3448 7.88569C8.71566 6.2696 9.29925 4.77977 10.0514 3.47586ZM12.0001 3.28785L11.9623 3.34128C11.0695 4.61273 10.3669 6.15749 9.9303 7.88553H14.0698C13.6271 6.13322 12.9108 4.56936 12.0001 3.28785ZM13.9479 3.47498L14.0033 3.57135C14.7292 4.85234 15.2935 6.30892 15.6553 7.88569L19.7158 7.88493C18.539 5.6829 16.447 4.04359 13.9479 3.47498Z" fill="#3F8AE0"/>
</svg>
