<svg width="47" height="45" viewBox="0 0 47 45" fill="none" xmlns="http://www.w3.org/2000/svg">
<path fill-rule="evenodd" clip-rule="evenodd" d="M12.3164 43.7512C8.00278 41.2538 7.66223 35.3604 10.1785 31.0184L10.3866 29.9873H29.7979L24.4154 39.2673C21.9085 43.6093 16.63 46.2485 12.3164 43.7512Z" fill="#EBEBF5" fill-opacity="0.6"/>
<path fill-rule="evenodd" clip-rule="evenodd" d="M36.9117 1.02139C41.2253 3.51876 41.5659 9.41215 39.0496 13.7542L38.5388 14.7853H19.4302L24.8127 5.50529C27.3196 1.16329 32.5981 -1.47597 36.9117 1.02139Z" fill="#EBEBF5" fill-opacity="0.6"/>
<path fill-rule="evenodd" clip-rule="evenodd" d="M38.5387 14.7759L24.4248 39.2671C22.5991 42.4171 19.326 44.6685 16.0151 44.7158L33.3264 44.7631C35.9562 44.7631 38.3873 43.3631 39.7117 41.0928L46.5984 29.2114L38.5387 14.7759Z" fill="white"/>
<path fill-rule="evenodd" clip-rule="evenodd" d="M0.985607 26.0331C-0.329291 23.7533 -0.319832 20.9438 0.995067 18.664L9.67907 3.67037C10.994 1.40004 13.4346 0 16.0644 0L33.3756 0.0472985C30.0647 0.094597 26.7917 2.34601 24.966 5.49609L10.1804 31.0184C8.35472 34.1684 8.03309 38.1321 9.64124 41.0267L0.985607 26.0331Z" fill="white"/>
</svg>
