<svg width="72" height="68" viewBox="0 0 72 68" fill="none" xmlns="http://www.w3.org/2000/svg">
<path fill-rule="evenodd" clip-rule="evenodd" d="M19.0257 66.4624C12.36 62.6687 11.8338 53.716 15.7221 47.1201L16.0437 45.5537H46.0391L37.7216 59.6509C33.848 66.2469 25.6913 70.2562 19.0257 66.4624Z" fill="#1853A2"/>
<path fill-rule="evenodd" clip-rule="evenodd" d="M57.0316 1.55179C63.6972 5.34553 64.2234 14.2982 60.3352 20.8941L59.5458 22.4605H30.0182L38.3356 8.36329C42.2093 1.76734 50.3659 -2.24196 57.0316 1.55179Z" fill="#1853A2"/>
<path fill-rule="evenodd" clip-rule="evenodd" d="M59.5458 22.4463L37.7363 59.6509C34.9151 64.4362 29.8574 67.8563 24.7412 67.9281L51.4915 68C55.5552 68 59.3119 65.8732 61.3584 62.4243L72 44.3753L59.5458 22.4463Z" fill="#3F8AE0"/>
<path fill-rule="evenodd" clip-rule="evenodd" d="M1.5166 39.5469C-0.515252 36.0837 -0.500634 31.8157 1.53122 28.3525L14.9502 5.57566C16.9821 2.1268 20.7534 0 24.8171 0L51.5674 0.0718513C46.4512 0.143703 41.3935 3.56382 38.5723 8.34912L15.7249 47.1201C12.9037 51.9053 12.4067 57.9265 14.8917 62.3238L1.5166 39.5469Z" fill="#3F8AE0"/>
</svg>
