<svg width="188" height="18" viewBox="0 0 188 18" fill="none" xmlns="http://www.w3.org/2000/svg">
<path fill-rule="evenodd" clip-rule="evenodd" d="M17.726 10.3219C17.726 14.475 14.5486 18 9.17417 18C3.79978 18 0 13.9687 0 9C0 4.03125 3.79978 0 9.17417 0C12.4459 0 15.3029 1.71563 16.7455 4.275L15.1991 5.16562C14.1243 3.075 11.7954 1.6875 9.17417 1.6875C4.75209 1.6875 1.75375 4.94062 1.75375 8.99062C1.75375 13.0406 4.75209 16.3031 9.17417 16.3031C13.2474 16.3031 15.5951 13.9687 15.9252 11.0531H8.97617V9.4125H17.726V10.3219Z" fill="#3F8AE0"/>
<path fill-rule="evenodd" clip-rule="evenodd" d="M29.8797 10.7436H24.9768V17.6998H23.223V0.299805H30.2191C33.1138 0.299805 35.471 2.63418 35.471 5.52168C35.471 7.88418 33.8681 9.89981 31.6995 10.5186L35.9707 17.6998H33.9718L29.8797 10.7436ZM24.9768 9.10293H30.2286C32.152 9.10293 33.7266 7.49043 33.7266 5.52168C33.7266 3.53418 32.152 1.94043 30.2286 1.94043H24.9768V9.10293Z" fill="#3F8AE0"/>
<path fill-rule="evenodd" clip-rule="evenodd" d="M51.0001 13.4248H42.7028L41.0811 17.6998H39.233L45.9557 0.299805H47.7566L54.4793 17.6998H52.6313L51.0001 13.4248ZM50.3778 11.7842L46.8515 2.46543L43.3251 11.7842H50.3778Z" fill="#3F8AE0"/>
<path fill-rule="evenodd" clip-rule="evenodd" d="M72.2337 0.299805V17.6998H70.7345L60.9852 3.53418V17.6998H59.2314V0.299805H60.7306L70.4799 14.4748V0.299805H72.2337Z" fill="#3F8AE0"/>
<path fill-rule="evenodd" clip-rule="evenodd" d="M93.7313 8.9998C93.7313 13.7998 90.3086 17.6998 85.4811 17.6998H78.7301V0.299805H85.4811C90.3086 0.299805 93.7313 4.20918 93.7313 8.9998ZM92.0341 8.9998C92.0341 5.0998 89.3846 1.94043 85.4811 1.94043H80.4839V16.0592H85.4811C89.3846 16.0592 92.0341 12.9092 92.0341 8.9998Z" fill="#3F8AE0"/>
<path fill-rule="evenodd" clip-rule="evenodd" d="M110.986 5.7748C110.986 8.87793 108.638 11.2404 105.489 11.2404H100.991V17.6998H99.2377V0.299805H105.489C108.638 0.299805 110.986 2.64355 110.986 5.7748ZM109.242 5.7748C109.242 3.53418 107.667 1.9498 105.489 1.9498H100.991V9.60918H105.489C107.658 9.5998 109.242 7.9873 109.242 5.7748Z" fill="#3F8AE0"/>
<path fill-rule="evenodd" clip-rule="evenodd" d="M129.495 0.299805V17.6998H127.741V9.57168H118.237V17.6998H116.492V0.299805H118.237V7.93106H127.741V0.299805H129.495Z" fill="#3F8AE0"/>
<path fill-rule="evenodd" clip-rule="evenodd" d="M146.014 13.4248H137.716L136.095 17.6998H134.247L140.969 0.299805H142.77L149.493 17.6998H147.645L146.014 13.4248ZM145.391 11.7842L141.865 2.46543L138.339 11.7842H145.391Z" fill="#3F8AE0"/>
<path fill-rule="evenodd" clip-rule="evenodd" d="M160.892 10.7436H155.989V17.6998H154.236V0.299805H161.232C164.136 0.299805 166.484 2.63418 166.484 5.52168C166.484 7.88418 164.881 9.89981 162.712 10.5186L166.983 17.6998H164.984L160.892 10.7436ZM155.999 9.10293H161.251C163.174 9.10293 164.749 7.49043 164.749 5.52168C164.749 3.53418 163.174 1.94043 161.251 1.94043H155.999V9.10293Z" fill="#3F8AE0"/>
<path fill-rule="evenodd" clip-rule="evenodd" d="M188 17.6998H186.246V2.93418L180.127 13.1248H179.872L173.753 2.93418V17.6998H171.999V0.299805H174.177L179.995 9.99355L185.822 0.299805H188V17.6998Z" fill="#3F8AE0"/>
</svg>
