<svg width="28" height="28" viewBox="0 0 28 28" fill="none" xmlns="http://www.w3.org/2000/svg">
<path opacity="0.25" d="M14 5.61117C12.6374 4.30361 10.7875 3.5 8.74996 3.5C4.5618 3.5 1.16663 6.89517 1.16663 11.0833C1.16663 18.513 9.29869 22.6158 12.616 23.9805C13.5095 24.348 14.4905 24.348 15.3839 23.9805C18.7012 22.6158 26.8333 18.513 26.8333 11.0833C26.8333 6.89517 23.4381 3.5 19.25 3.5C17.2124 3.5 15.3625 4.30361 14 5.61117Z" fill="#3F8AE0"/>
<path fill-rule="evenodd" clip-rule="evenodd" d="M14 10.3375L12.7435 9.22002C12.0081 8.56605 11.0146 8.16675 9.91671 8.16675C7.66154 8.16675 5.83337 9.86085 5.83337 11.9506C5.83337 14.4678 7.70004 16.4456 10.0317 17.9187C11.1613 18.6324 12.3037 19.163 13.1705 19.516C13.4946 19.648 13.7765 19.7536 14 19.8334C14.2236 19.7536 14.5054 19.648 14.8296 19.516C15.6964 19.163 16.8388 18.6324 17.9684 17.9187C20.3 16.4456 22.1667 14.4678 22.1667 11.9506C22.1667 9.86085 20.3385 8.16675 18.0834 8.16675C16.9855 8.16675 15.992 8.56605 15.2566 9.22002L14 10.3375Z" fill="#3F8AE0"/>
</svg>
