<svg width="28" height="28" viewBox="0 0 28 28" fill="none" xmlns="http://www.w3.org/2000/svg">
<path opacity="0.25" d="M14.0001 5.61117C12.6375 4.30361 10.7877 3.5 8.75008 3.5C4.56192 3.5 1.16675 6.89517 1.16675 11.0833C1.16675 18.513 9.29881 22.6158 12.6162 23.9805C13.5096 24.348 14.4906 24.348 15.384 23.9805C18.7013 22.6158 26.8334 18.513 26.8334 11.0833C26.8334 6.89517 23.4382 3.5 19.2501 3.5C17.2125 3.5 15.3626 4.30361 14.0001 5.61117Z" fill="#99A2AD"/>
<path fill-rule="evenodd" clip-rule="evenodd" d="M13.9999 10.3372L12.7433 9.21977C12.008 8.56581 11.0145 8.1665 9.91659 8.1665C7.66142 8.1665 5.83325 9.86061 5.83325 11.9504C5.83325 14.4676 7.69992 16.4453 10.0315 17.9185C11.1612 18.6322 12.3036 19.1628 13.1704 19.5157C13.4945 19.6477 13.7764 19.7533 13.9999 19.8332C14.2234 19.7533 14.5053 19.6477 14.8295 19.5157C15.6963 19.1628 16.8387 18.6322 17.9683 17.9185C20.2999 16.4453 22.1666 14.4676 22.1666 11.9504C22.1666 9.86061 20.3384 8.1665 18.0833 8.1665C16.9853 8.1665 15.9919 8.56581 15.2565 9.21977L13.9999 10.3372Z" fill="#99A2AD"/>
</svg>
