<svg width="28" height="28" viewBox="0 0 28 28" fill="none" xmlns="http://www.w3.org/2000/svg">
<path opacity="0.25" d="M23.3334 21.9333V7.74664L15.9267 3.28417L15.9267 3.28417C15.2264 2.86222 14.8762 2.65124 14.5022 2.56883C14.1714 2.49594 13.8287 2.49594 13.4979 2.56883C13.124 2.65125 12.7738 2.86222 12.0734 3.28418L4.66675 7.74667V21.9333C4.66675 23.2401 4.66675 23.8935 4.92107 24.3927C5.14477 24.8317 5.50173 25.1887 5.94077 25.4124C6.4399 25.6667 7.09329 25.6667 8.40008 25.6667H19.6001C20.9069 25.6667 21.5603 25.6667 22.0594 25.4124C22.4984 25.1887 22.8554 24.8317 23.0791 24.3927C23.3334 23.8935 23.3334 23.2401 23.3334 21.9333Z" fill="#99A2AD"/>
<path fill-rule="evenodd" clip-rule="evenodd" d="M1.33294 11.1001C1.66444 11.6527 2.38108 11.8318 2.93359 11.5003L14 4.86046L25.0664 11.5003C25.6189 11.8318 26.3356 11.6527 26.6671 11.1001C26.9986 10.5476 26.8194 9.831 26.2669 9.4995L15.2005 2.85964C14.4616 2.41629 13.5384 2.41629 12.7995 2.85964L1.7331 9.4995C1.18059 9.831 1.00143 10.5476 1.33294 11.1001Z" fill="#99A2AD"/>
<path d="M10.5 18.6667C10.5 16.7338 12.067 15.1667 14 15.1667C15.933 15.1667 17.5 16.7338 17.5 18.6667V25.6667H10.5V18.6667Z" fill="#99A2AD"/>
</svg>
