<svg width="22" height="22" viewBox="0 0 22 22" fill="none" xmlns="http://www.w3.org/2000/svg">
<path d="M11.0001 0.714294C16.6807 0.714294 21.2858 5.31936 21.2858 11C21.2858 16.6806 16.6807 21.2857 11.0001 21.2857C5.31943 21.2857 0.714355 16.6806 0.714355 11C0.714355 5.31936 5.31943 0.714294 11.0001 0.714294ZM11.0001 2.42858C6.2662 2.42858 2.42864 6.26614 2.42864 11C2.42864 15.7339 6.2662 19.5714 11.0001 19.5714C15.7339 19.5714 19.5715 15.7339 19.5715 11C19.5715 6.26614 15.7339 2.42858 11.0001 2.42858ZM11.0001 5.85715C11.4735 5.85715 11.8572 6.24091 11.8572 6.71429V10.1429H15.2858C15.7592 10.1429 16.1429 10.5266 16.1429 11C16.1429 11.4734 15.7592 11.8572 15.2858 11.8572H11.8572V15.2857C11.8572 15.7591 11.4735 16.1429 11.0001 16.1429C10.5267 16.1429 10.1429 15.7591 10.1429 15.2857V11.8572H6.71435C6.24097 11.8572 5.85721 11.4734 5.85721 11C5.85721 10.5266 6.24097 10.1429 6.71435 10.1429H10.1429V6.71429C10.1429 6.24091 10.5267 5.85715 11.0001 5.85715Z" fill="#3F8AE0"/>
</svg>
