<svg width="36" height="36" viewBox="0 0 36 36" fill="none" xmlns="http://www.w3.org/2000/svg">
<path d="M18 9.5C18.5523 9.5 19 9.94772 19 10.5L19 17H25.5C26.0523 17 26.5 17.4477 26.5 18C26.5 18.5523 26.0523 19 25.5 19H19L19 25.5001C19 26.0524 18.5523 26.5001 18 26.5001C17.4477 26.5001 17 26.0524 17 25.5001L16.999 19H10.5C9.94772 19 9.5 18.5523 9.5 18C9.5 17.4477 9.94772 17 10.5 17H16.999L17 10.5C17 9.94772 17.4477 9.5 18 9.5Z" fill="#3F8AE0"/>
<rect x="1" y="1" width="34" height="34" rx="9" stroke="#3F8AE0" stroke-width="2" stroke-linejoin="bevel"/>
</svg>
