<svg width="28" height="28" viewBox="0 0 28 28" fill="none" xmlns="http://www.w3.org/2000/svg">
<g opacity="0.25">
<path d="M8.16659 25.6667C9.45525 25.6667 10.4999 24.622 10.4999 23.3333C10.4999 22.0447 9.45525 21 8.16659 21C6.87792 21 5.83325 22.0447 5.83325 23.3333C5.83325 24.622 6.87792 25.6667 8.16659 25.6667Z" fill="#99A2AD"/>
<path d="M19.8333 25.6667C21.1219 25.6667 22.1666 24.622 22.1666 23.3333C22.1666 22.0447 21.1219 21 19.8333 21C18.5446 21 17.4999 22.0447 17.4999 23.3333C17.4999 24.622 18.5446 25.6667 19.8333 25.6667Z" fill="#99A2AD"/>
</g>
<path opacity="0.25" d="M4.02168 2.45643C3.44537 2.16828 2.74459 2.40187 2.45643 2.97818C2.16828 3.55449 2.40187 4.25527 2.97818 4.54343L4.14894 5.12881C4.51032 5.3095 4.75249 5.6643 4.78907 6.06668L5.64514 15.4835C5.80903 17.2863 7.32055 18.6666 9.13076 18.6666H19.2399C20.8026 18.6666 22.1759 17.6307 22.6052 16.1281L24.0301 11.1409C24.2105 10.5095 24.3224 9.87928 24.3914 9.36257C24.4786 8.71049 23.9561 8.16663 23.2982 8.16662L7.85563 8.1666C7.55393 8.1666 7.30201 7.93654 7.27469 7.63608L7.11282 5.85543C7.00308 4.6483 6.27658 3.58388 5.19244 3.04181L4.02168 2.45643Z" fill="#99A2AD"/>
<path fill-rule="evenodd" clip-rule="evenodd" d="M2.45643 2.97818C2.74459 2.40187 3.44537 2.16828 4.02168 2.45643L5.19244 3.04181C6.27658 3.58388 7.00308 4.6483 7.11282 5.85543L7.96889 15.2722C8.02352 15.8731 8.52736 16.3333 9.13076 16.3333H19.2399C19.7608 16.3333 20.2186 15.988 20.3617 15.4871L22.2115 9.01276C22.3885 8.39321 23.0342 8.03447 23.6538 8.21149C24.2733 8.3885 24.6321 9.03423 24.455 9.65377L22.6052 16.1281C22.1759 17.6307 20.8026 18.6666 19.2399 18.6666H9.13076C7.32055 18.6666 5.80903 17.2863 5.64514 15.4835L4.78907 6.06668C4.75249 5.6643 4.51032 5.3095 4.14894 5.12881L2.97818 4.54343C2.40187 4.25527 2.16828 3.55449 2.45643 2.97818Z" fill="#99A2AD"/>
</svg>
