<svg width="28" height="28" viewBox="0 0 28 28" fill="none" xmlns="http://www.w3.org/2000/svg">
<path opacity="0.25" fill-rule="evenodd" clip-rule="evenodd" d="M8.16671 6.99992V5.83325C8.16671 3.90026 9.73371 2.33325 11.6667 2.33325H16.3334C18.2664 2.33325 19.8334 3.90026 19.8334 5.83325V6.99992H22.1667C24.0997 6.99992 25.6667 8.56692 25.6667 10.4999V22.1666C25.6667 24.0996 24.0997 25.6666 22.1667 25.6666H5.83337C3.90038 25.6666 2.33337 24.0996 2.33337 22.1666V10.4999C2.33337 8.56692 3.90038 6.99992 5.83337 6.99992H8.16671ZM10.5 5.83325C10.5 5.18892 11.0224 4.66659 11.6667 4.66659H16.3334C16.9777 4.66659 17.5 5.18892 17.5 5.83325V6.99992H10.5V5.83325Z" fill="#3F8AE0"/>
<path fill-rule="evenodd" clip-rule="evenodd" d="M12.8334 12.8334C12.8334 12.1891 13.3557 11.6667 14 11.6667C14.6444 11.6667 15.1667 12.1891 15.1667 12.8334V15.1667H17.5C18.1444 15.1667 18.6667 15.6891 18.6667 16.3334C18.6667 16.9777 18.1444 17.5001 17.5 17.5001H15.1667V19.8334C15.1667 20.4777 14.6444 21.0001 14 21.0001C13.3557 21.0001 12.8334 20.4777 12.8334 19.8334V17.5001H10.5C9.85571 17.5001 9.33337 16.9777 9.33337 16.3334C9.33337 15.6891 9.85571 15.1667 10.5 15.1667H12.8334V12.8334Z" fill="#3F8AE0"/>
</svg>
