<svg width="28" height="28" viewBox="0 0 28 28" fill="none" xmlns="http://www.w3.org/2000/svg">
<g opacity="0.25">
<path d="M8.16671 25.6667C9.45537 25.6667 10.5 24.622 10.5 23.3333C10.5 22.0447 9.45537 21 8.16671 21C6.87804 21 5.83337 22.0447 5.83337 23.3333C5.83337 24.622 6.87804 25.6667 8.16671 25.6667Z" fill="#3F8AE0"/>
<path d="M19.8334 25.6667C21.122 25.6667 22.1667 24.622 22.1667 23.3333C22.1667 22.0447 21.122 21 19.8334 21C18.5447 21 17.5 22.0447 17.5 23.3333C17.5 24.622 18.5447 25.6667 19.8334 25.6667Z" fill="#3F8AE0"/>
</g>
<path opacity="0.25" d="M4.02168 2.45643C3.44537 2.16828 2.74459 2.40187 2.45643 2.97818C2.16828 3.55449 2.40187 4.25527 2.97818 4.54343L4.14894 5.12881C4.51032 5.3095 4.75249 5.6643 4.78907 6.06668L5.64514 15.4835C5.80903 17.2863 7.32055 18.6666 9.13076 18.6666H19.2399C20.8026 18.6666 22.1759 17.6307 22.6052 16.1281L24.0301 11.1409C24.2105 10.5095 24.3224 9.87928 24.3914 9.36257C24.4786 8.71049 23.9561 8.16663 23.2982 8.16662L7.85563 8.1666C7.55393 8.1666 7.30201 7.93654 7.27469 7.63608L7.11282 5.85543C7.00308 4.6483 6.27658 3.58388 5.19244 3.04181L4.02168 2.45643Z" fill="#3F8AE0"/>
<path fill-rule="evenodd" clip-rule="evenodd" d="M2.45655 2.97818C2.74471 2.40187 3.44549 2.16828 4.0218 2.45643L5.19256 3.04181C6.2767 3.58388 7.0032 4.6483 7.11294 5.85543L7.96901 15.2722C8.02364 15.8731 8.52748 16.3333 9.13089 16.3333H19.24C19.7609 16.3333 20.2187 15.988 20.3618 15.4871L22.2116 9.01276C22.3886 8.39321 23.0344 8.03447 23.6539 8.21149C24.2734 8.3885 24.6322 9.03423 24.4552 9.65377L22.6053 16.1281C22.176 17.6307 20.8027 18.6666 19.24 18.6666H9.13089C7.32067 18.6666 5.80915 17.2863 5.64526 15.4835L4.78919 6.06668C4.75261 5.6643 4.51044 5.3095 4.14906 5.12881L2.9783 4.54343C2.40199 4.25527 2.1684 3.55449 2.45655 2.97818Z" fill="#3F8AE0"/>
</svg>
