<svg width="24" height="24" viewBox="0 0 24 24" fill="none" xmlns="http://www.w3.org/2000/svg">
<path d="M19.7142 10.2985C19.7142 6.03139 16.2608 2.57153 11.9999 2.57153C7.73909 2.57153 4.28564 6.03139 4.28564 10.2985C4.28564 13.3394 6.15351 17.0099 9.84023 21.3689C10.849 22.5617 12.6338 22.7108 13.8266 21.702C13.9466 21.6004 14.0581 21.489 14.1596 21.3689C17.8463 17.0099 19.7142 13.3394 19.7142 10.2985ZM12.7195 20.3931C12.2496 20.7905 11.5465 20.7317 11.1491 20.2618C7.69999 16.1838 5.99993 12.843 5.99993 10.2985C5.99993 6.97745 8.68658 4.28582 11.9999 4.28582C15.3133 4.28582 17.9999 6.97745 17.9999 10.2985C17.9999 12.843 16.2999 16.1838 12.8507 20.2618C12.8107 20.3092 12.7668 20.353 12.7195 20.3931ZM8.57136 10.2858C8.57136 8.39276 10.1069 6.85725 11.9999 6.85725C13.893 6.85725 15.4285 8.39276 15.4285 10.2858C15.4285 12.1789 13.893 13.7144 11.9999 13.7144C10.1069 13.7144 8.57136 12.1789 8.57136 10.2858ZM10.2856 10.2858C10.2856 11.2321 11.0536 12.0001 11.9999 12.0001C12.9462 12.0001 13.7142 11.2321 13.7142 10.2858C13.7142 9.33953 12.9462 8.57153 11.9999 8.57153C11.0536 8.57153 10.2856 9.33953 10.2856 10.2858Z" fill="#BF4040"/>
</svg>
