<svg width="24" height="24" viewBox="0 0 24 24" fill="none" xmlns="http://www.w3.org/2000/svg">
<path d="M18.1323 6.85721C19.2785 6.85721 19.6941 6.97656 20.1132 7.20067C20.5322 7.42478 20.8611 7.75365 21.0852 8.1727L21.1643 8.33111C21.3373 8.70707 21.4287 9.15068 21.4287 10.1536V16.2423L21.4241 16.7406C21.3909 18.4708 21.1756 19.1698 20.799 19.8741C20.3881 20.6423 19.7852 21.2452 19.017 21.6561C18.2487 22.067 17.4867 22.2858 15.3852 22.2858H8.61498L8.11674 22.2812C6.38649 22.248 5.68749 22.0327 4.98325 21.6561C4.215 21.2452 3.61207 20.6423 3.2012 19.8741C2.80746 19.1378 2.5901 18.4073 2.57267 16.4981L2.57153 10.1536C2.57153 9.0074 2.69088 8.59174 2.91499 8.1727C3.1391 7.75365 3.46797 7.42478 3.88702 7.20067L4.04543 7.12157C4.39454 6.96094 4.80197 6.87068 5.66142 6.85861L18.1323 6.85721ZM18.1323 8.5715H5.86796L5.56562 8.57386C5.02673 8.58347 4.8617 8.62345 4.69547 8.71235C4.57517 8.77669 4.49101 8.86085 4.42667 8.98115C4.33036 9.16123 4.29146 9.3399 4.2864 9.99403L4.28582 16.2423C4.28582 17.8995 4.39692 18.4748 4.71288 19.0656C4.96398 19.5351 5.3222 19.8933 5.79171 20.1444C6.3825 20.4604 6.95785 20.5715 8.61498 20.5715H15.3852C17.0424 20.5715 17.6177 20.4604 18.2085 20.1444C18.678 19.8933 19.0362 19.5351 19.2873 19.0656C19.6033 18.4748 19.7144 17.8995 19.7144 16.2423V10.1536C19.7144 9.36738 19.6773 9.17508 19.5735 8.98115C19.5092 8.86085 19.425 8.77669 19.3047 8.71235C19.1385 8.62345 18.9735 8.58347 18.4346 8.57386L18.1323 8.5715ZM16.2858 10.2858C16.7592 10.2858 17.143 10.6695 17.143 11.1429C17.143 11.6163 16.7592 12.0001 16.2858 12.0001C15.8124 12.0001 15.4287 11.6163 15.4287 11.1429C15.4287 10.6695 15.8124 10.2858 16.2858 10.2858ZM7.71439 10.2858C8.18778 10.2858 8.57153 10.6695 8.57153 11.1429C8.57153 11.6163 8.18778 12.0001 7.71439 12.0001C7.241 12.0001 6.85725 11.6163 6.85725 11.1429C6.85725 10.6695 7.241 10.2858 7.71439 10.2858ZM12.0001 1.71436C14.8404 1.71436 17.143 4.01689 17.143 6.85721H15.4287C15.4287 4.96366 13.8937 3.42864 12.0001 3.42864C10.1066 3.42864 8.57153 4.96366 8.57153 6.85721H6.85725C6.85725 4.01689 9.15978 1.71436 12.0001 1.71436Z" fill="#BF4040"/>
</svg>
