<svg width="42" height="42" viewBox="0 0 42 42" fill="none" xmlns="http://www.w3.org/2000/svg">
<rect width="42" height="42" rx="12" fill="#D434AB" fill-opacity="0.1"/>
<path d="M14.3479 12H12V17.4783C12 19.6305 13.7609 21.3914 15.9131 21.3914C18.0653 21.3914 19.8262 19.6305 19.8262 17.4783V12H17.4783" stroke="#D434AB" stroke-width="2" stroke-miterlimit="10"/>
<path d="M15.9128 21.3913V24.3261C15.9128 27.4565 18.4563 30.0001 21.5868 30.0001C24.7173 30.0001 27.2608 27.4565 27.2608 24.3261V20.6086" stroke="#D434AB" stroke-width="2" stroke-miterlimit="10"/>
<path d="M27.2609 20.6087C28.7737 20.6087 30.0001 19.3823 30.0001 17.8695C30.0001 16.3567 28.7737 15.1304 27.2609 15.1304C25.7481 15.1304 24.5217 16.3567 24.5217 17.8695C24.5217 19.3823 25.7481 20.6087 27.2609 20.6087Z" stroke="#D434AB" stroke-width="2" stroke-miterlimit="10"/>
</svg>
