<svg width="28" height="28" viewBox="0 0 28 28" fill="none" xmlns="http://www.w3.org/2000/svg">
<path opacity="0.25" fill-rule="evenodd" clip-rule="evenodd" d="M8.16659 7.00016V5.8335C8.16659 3.9005 9.73359 2.3335 11.6666 2.3335H16.3333C18.2662 2.3335 19.8333 3.9005 19.8333 5.8335V7.00016H22.1666C24.0996 7.00016 25.6666 8.56717 25.6666 10.5002V22.1668C25.6666 24.0998 24.0996 25.6668 22.1666 25.6668H5.83325C3.90025 25.6668 2.33325 24.0998 2.33325 22.1668V10.5002C2.33325 8.56717 3.90026 7.00016 5.83325 7.00016H8.16659ZM10.4999 5.8335C10.4999 5.18916 11.0223 4.66683 11.6666 4.66683H16.3333C16.9776 4.66683 17.4999 5.18916 17.4999 5.8335V7.00016H10.4999V5.8335Z" fill="#99A2AD"/>
<path fill-rule="evenodd" clip-rule="evenodd" d="M12.8333 12.8332C12.8333 12.1888 13.3556 11.6665 13.9999 11.6665C14.6443 11.6665 15.1666 12.1888 15.1666 12.8332V15.1665H17.4999C18.1443 15.1665 18.6666 15.6888 18.6666 16.3332C18.6666 16.9775 18.1443 17.4998 17.4999 17.4998H15.1666V19.8332C15.1666 20.4775 14.6443 20.9998 13.9999 20.9998C13.3556 20.9998 12.8333 20.4775 12.8333 19.8332V17.4998H10.4999C9.85559 17.4998 9.33325 16.9775 9.33325 16.3332C9.33325 15.6888 9.85559 15.1665 10.4999 15.1665H12.8333V12.8332Z" fill="#99A2AD"/>
</svg>
