<svg width="32" height="32" viewBox="0 0 32 32" fill="none" xmlns="http://www.w3.org/2000/svg">
<path opacity="0.25" fill-rule="evenodd" clip-rule="evenodd" d="M9.33342 7.99984V6.6665C9.33342 4.45736 11.1243 2.6665 13.3334 2.6665H18.6667C20.8759 2.6665 22.6667 4.45737 22.6667 6.6665V7.99984H25.3334C27.5426 7.99984 29.3334 9.7907 29.3334 11.9998V25.3332C29.3334 27.5423 27.5426 29.3332 25.3334 29.3332H6.66675C4.45761 29.3332 2.66675 27.5423 2.66675 25.3332V11.9998C2.66675 9.7907 4.45761 7.99984 6.66675 7.99984H9.33342ZM12.0001 6.6665C12.0001 5.93012 12.597 5.33317 13.3334 5.33317H18.6667C19.4031 5.33317 20.0001 5.93012 20.0001 6.6665V7.99984H12.0001V6.6665Z" fill="white"/>
<path fill-rule="evenodd" clip-rule="evenodd" d="M14.6667 14.6668C14.6667 13.9304 15.2637 13.3335 16.0001 13.3335C16.7365 13.3335 17.3334 13.9304 17.3334 14.6668V17.3335H20.0001C20.7365 17.3335 21.3334 17.9305 21.3334 18.6668C21.3334 19.4032 20.7365 20.0002 20.0001 20.0002H17.3334V22.6668C17.3334 23.4032 16.7365 24.0002 16.0001 24.0002C15.2637 24.0002 14.6667 23.4032 14.6667 22.6668V20.0002H12.0001C11.2637 20.0002 10.6667 19.4032 10.6667 18.6668C10.6667 17.9304 11.2637 17.3335 12.0001 17.3335H14.6667V14.6668Z" fill="white"/>
</svg>
