<svg width="28" height="28" viewBox="0 0 28 28" fill="none" xmlns="http://www.w3.org/2000/svg">
<path opacity="0.25" d="M15.3674 18.051C15.5591 16.6511 16.6512 15.559 18.0511 15.3673C18.854 15.2573 19.7261 15.1665 20.4166 15.1665C21.1071 15.1665 21.9792 15.2573 22.7821 15.3673C24.182 15.559 25.2741 16.6511 25.4659 18.051C25.5758 18.8539 25.6666 19.726 25.6666 20.4165C25.6666 21.107 25.5758 21.9791 25.4659 22.782C25.2741 24.1819 24.182 25.274 22.7821 25.4657C21.9792 25.5757 21.1071 25.6665 20.4166 25.6665C19.7261 25.6665 18.854 25.5757 18.0511 25.4657C16.6512 25.274 15.5591 24.1819 15.3674 22.782C15.2574 21.9791 15.1666 21.107 15.1666 20.4165C15.1666 19.726 15.2574 18.8539 15.3674 18.051Z" fill="#3F8AE0"/>
<path opacity="0.25" d="M2.53415 18.051C2.72587 16.6511 3.818 15.559 5.21788 15.3673C6.02079 15.2573 6.8929 15.1665 7.58337 15.1665C8.27385 15.1665 9.14595 15.2573 9.94886 15.3673C11.3488 15.559 12.4409 16.6511 12.6326 18.051C12.7426 18.8539 12.8334 19.726 12.8334 20.4165C12.8334 21.107 12.7426 21.9791 12.6326 22.782C12.4409 24.1819 11.3488 25.274 9.94886 25.4657C9.14595 25.5757 8.27385 25.6665 7.58337 25.6665C6.8929 25.6665 6.02079 25.5757 5.21788 25.4657C3.818 25.274 2.72587 24.1819 2.53415 22.782C2.42419 21.9791 2.33337 21.107 2.33337 20.4165C2.33337 19.726 2.42419 18.8539 2.53415 18.051Z" fill="#3F8AE0"/>
<path opacity="0.25" d="M15.3674 5.218C15.5591 3.81812 16.6512 2.72599 18.0511 2.53427C18.854 2.42431 19.7261 2.3335 20.4166 2.3335C21.1071 2.3335 21.9792 2.42431 22.7821 2.53427C24.182 2.72599 25.2741 3.81812 25.4659 5.218C25.5758 6.02092 25.6666 6.89302 25.6666 7.5835C25.6666 8.27397 25.5758 9.14608 25.4659 9.94899C25.2741 11.3489 24.182 12.441 22.7821 12.6327C21.9792 12.7427 21.1071 12.8335 20.4166 12.8335C19.7261 12.8335 18.854 12.7427 18.0511 12.6327C16.6512 12.441 15.5591 11.3489 15.3674 9.94899C15.2574 9.14608 15.1666 8.27397 15.1666 7.5835C15.1666 6.89302 15.2574 6.02092 15.3674 5.218Z" fill="#3F8AE0"/>
<path d="M2.53415 5.218C2.72587 3.81812 3.818 2.72599 5.21788 2.53427C6.02079 2.42431 6.8929 2.3335 7.58337 2.3335C8.27385 2.3335 9.14595 2.42431 9.94886 2.53427C11.3488 2.72599 12.4409 3.81812 12.6326 5.218C12.7426 6.02092 12.8334 6.89302 12.8334 7.5835C12.8334 8.27397 12.7426 9.14608 12.6326 9.94899C12.4409 11.3489 11.3488 12.441 9.94886 12.6327C9.14595 12.7427 8.27385 12.8335 7.58337 12.8335C6.8929 12.8335 6.02079 12.7427 5.21788 12.6327C3.818 12.441 2.72587 11.3489 2.53415 9.94899C2.42419 9.14608 2.33337 8.27397 2.33337 7.5835C2.33337 6.89302 2.42419 6.02092 2.53415 5.218Z" fill="#3F8AE0"/>
</svg>
