<svg width="16" height="16" viewBox="0 0 16 16" fill="none" xmlns="http://www.w3.org/2000/svg">
<g clip-path="url(#clip0_584_33153)">
<path d="M14.5454 9.61818V7.29091C13.8468 7.14786 13.2056 6.8028 12.7013 6.29857C12.1971 5.79434 11.8521 5.15314 11.709 4.45455H4.29083C4.14778 5.15314 3.80272 5.79434 3.29849 6.29857C2.79426 6.8028 2.15306 7.14786 1.45446 7.29091V9.61818C2.15306 9.76123 2.79426 10.1063 3.29849 10.6105C3.80272 11.1147 4.14778 11.756 4.29083 12.4545H11.709C11.8521 11.756 12.1971 11.1147 12.7013 10.6105C13.2056 10.1063 13.8468 9.76123 14.5454 9.61818V9.61818ZM14.5454 11.124C14.2386 11.2328 13.9599 11.4088 13.7298 11.6389C13.4996 11.8691 13.3237 12.1478 13.2148 12.4545H14.1792C14.3821 12.4545 14.5454 12.2909 14.5454 12.088V11.1244V11.124ZM1.45446 11.124V12.088C1.45446 12.2913 1.6181 12.4545 1.82065 12.4545H2.78501C2.67617 12.1478 2.50025 11.8691 2.27007 11.6389C2.03989 11.4088 1.76125 11.2328 1.45446 11.124V11.124ZM13.2148 4.45455C13.3237 4.76134 13.4996 5.03998 13.7298 5.27016C13.9599 5.50034 14.2386 5.67626 14.5454 5.78509V4.82109C14.5454 4.61782 14.3817 4.45455 14.1792 4.45455H13.2148ZM2.78537 4.45455H1.82065C1.61774 4.45455 1.45446 4.61818 1.45446 4.82109V5.78473C1.76122 5.67593 2.03983 5.50007 2.27001 5.26995C2.50019 5.03984 2.67613 4.76127 2.78501 4.45455H2.78537ZM-8.16889e-05 4.82109C-0.00022506 4.58193 0.046769 4.34509 0.138214 4.1241C0.229659 3.90312 0.363761 3.70232 0.532855 3.53319C0.701949 3.36407 0.902719 3.22992 1.12369 3.13843C1.34465 3.04695 1.58149 2.9999 1.82065 3H14.1792C14.4183 2.9999 14.6552 3.04695 14.8762 3.13843C15.0971 3.22992 15.2979 3.36407 15.467 3.53319C15.6361 3.70232 15.7702 3.90312 15.8616 4.1241C15.9531 4.34509 16.0001 4.58193 15.9999 4.82109V12.088C16.0001 12.3272 15.9531 12.564 15.8616 12.785C15.7702 13.006 15.6361 13.2068 15.467 13.3759C15.2979 13.545 15.0971 13.6792 14.8762 13.7707C14.6552 13.8621 14.4183 13.9092 14.1792 13.9091H1.82065C1.58149 13.9092 1.34465 13.8621 1.12369 13.7707C0.902719 13.6792 0.701949 13.545 0.532855 13.3759C0.363761 13.2068 0.229659 13.006 0.138214 12.785C0.046769 12.564 -0.00022506 12.3272 -8.16889e-05 12.088V4.82109ZM7.99992 11.3636C7.22838 11.3636 6.48844 11.0571 5.94288 10.5116C5.39732 9.96602 5.09083 9.22608 5.09083 8.45455C5.09083 7.68301 5.39732 6.94307 5.94288 6.39751C6.48844 5.85195 7.22838 5.54545 7.99992 5.54545C8.77146 5.54545 9.5114 5.85195 10.057 6.39751C10.6025 6.94307 10.909 7.68301 10.909 8.45455C10.909 9.22608 10.6025 9.96602 10.057 10.5116C9.5114 11.0571 8.77146 11.3636 7.99992 11.3636ZM7.99992 9.90909C8.38569 9.90909 8.75566 9.75584 9.02844 9.48306C9.30122 9.21028 9.45446 8.84032 9.45446 8.45455C9.45446 8.06878 9.30122 7.69881 9.02844 7.42603C8.75566 7.15325 8.38569 7 7.99992 7C7.61415 7 7.24418 7.15325 6.9714 7.42603C6.69862 7.69881 6.54537 8.06878 6.54537 8.45455C6.54537 8.84032 6.69862 9.21028 6.9714 9.48306C7.24418 9.75584 7.61415 9.90909 7.99992 9.90909Z" fill="#3F8AE0"/>
</g>
<defs>
<clipPath id="clip0_584_33153">
<rect width="16" height="16" fill="white"/>
</clipPath>
</defs>
</svg>
