<svg width="24" height="24" viewBox="0 0 24 24" fill="none" xmlns="http://www.w3.org/2000/svg">
<path d="M15.3334 7.33248C15.3334 6.96467 15.0328 6.6665 14.6702 6.6665H3.32993C2.96366 6.6665 2.66675 6.96161 2.66675 7.33248V8.00053C2.66675 8.36834 2.96736 8.6665 3.32993 8.6665H14.6702C15.0365 8.6665 15.3334 8.3714 15.3334 8.00053V7.33248ZM12.6667 11.3325C12.6667 10.9647 12.3675 10.6665 11.9951 10.6665H3.3384C2.96746 10.6665 2.66675 10.9616 2.66675 11.3325V12.0005C2.66675 12.3683 2.96603 12.6665 3.3384 12.6665H11.9951C12.366 12.6665 12.6667 12.3714 12.6667 12.0005V11.3325ZM19.3334 10.6665V14.6665H21.3563C21.427 14.6665 21.4948 14.6946 21.5449 14.7446C21.649 14.8487 21.649 15.0176 21.5449 15.1217L17.522 19.1446C17.4178 19.2487 17.249 19.2487 17.1449 19.1446L13.122 15.1217C13.072 15.0717 13.0439 15.0039 13.0439 14.9332C13.0439 14.7859 13.1633 14.6665 13.3105 14.6665H15.3334V10.6665H19.3334ZM9.99843 14.6665C10.3629 14.6665 10.6667 14.9647 10.6667 15.3325V16.0005C10.6667 16.3714 10.3675 16.6665 9.99843 16.6665H3.33506C2.97059 16.6665 2.66675 16.3683 2.66675 16.0005V15.3325C2.66675 14.9616 2.96596 14.6665 3.33506 14.6665H9.99843Z" fill="#BF4040"/>
</svg>
