<svg width="24" height="24" viewBox="0 0 24 24" fill="none" xmlns="http://www.w3.org/2000/svg">
<path d="M14.5904 2.1001C16.7583 2.1001 17.7924 2.2998 18.8666 2.8743C19.8383 3.39395 20.6062 4.16189 21.1259 5.13354C21.7004 6.20776 21.9001 7.2419 21.9001 9.40981V14.5904C21.9001 16.7583 21.7004 17.7924 21.1259 18.8666C20.6062 19.8383 19.8383 20.6062 18.8666 21.1259C17.7924 21.7004 16.7583 21.9001 14.5904 21.9001H9.40981C7.2419 21.9001 6.20776 21.7004 5.13354 21.1259C4.16189 20.6062 3.39395 19.8383 2.8743 18.8666C2.2998 17.7924 2.1001 16.7583 2.1001 14.5904V9.40981C2.1001 7.2419 2.2998 6.20776 2.8743 5.13354C3.39395 4.16189 4.16189 3.39395 5.13354 2.8743C6.20776 2.2998 7.2419 2.1001 9.40981 2.1001H14.5904ZM14.5904 3.9001H9.40981C7.51364 3.9001 6.76022 4.04559 5.98242 4.46156C5.32445 4.81345 4.81345 5.32445 4.46156 5.98242C4.04559 6.76022 3.9001 7.51364 3.9001 9.40981V14.5904C3.9001 16.4866 4.04559 17.24 4.46156 18.0178C4.81345 18.6757 5.32445 19.1867 5.98242 19.5386C6.76022 19.9546 7.51364 20.1001 9.40981 20.1001H14.5904C16.4866 20.1001 17.24 19.9546 18.0178 19.5386C18.6757 19.1867 19.1867 18.6757 19.5386 18.0178C19.9546 17.24 20.1001 16.4866 20.1001 14.5904V9.40981C20.1001 7.51364 19.9546 6.76022 19.5386 5.98242C19.1867 5.32445 18.6757 4.81345 18.0178 4.46156C17.24 4.04559 16.4866 3.9001 14.5904 3.9001ZM12.0001 7.5001C12.4589 7.5001 12.8375 7.84343 12.8931 8.2872L12.9001 8.4001L12.8991 11.1001H15.6001C16.0589 11.1001 16.4375 11.4434 16.4931 11.8872L16.5001 12.0001C16.5001 12.4589 16.1568 12.8375 15.713 12.8931L15.6001 12.9001H12.8991L12.9001 15.6001C12.9001 16.0589 12.5568 16.4375 12.113 16.4931L12.0001 16.5001C11.5413 16.5001 11.1626 16.1568 11.1071 15.713L11.1001 15.6001L11.0991 12.9001H8.4001C7.94128 12.9001 7.56265 12.5568 7.50711 12.113L7.5001 12.0001C7.5001 11.5413 7.84343 11.1626 8.2872 11.1071L8.4001 11.1001H11.0991L11.1001 8.4001C11.1001 7.94128 11.4434 7.56265 11.8872 7.50711L12.0001 7.5001Z" fill="#BF4040"/>
</svg>
