<svg width="26" height="26" viewBox="0 0 26 26" fill="none" xmlns="http://www.w3.org/2000/svg">
<rect width="26" height="26" rx="10" fill="#BF4040"/>
<path d="M13 7.33325C13.3682 7.33325 13.6667 7.63173 13.6667 7.99992L13.6667 12.3333H18C18.3682 12.3333 18.6667 12.6317 18.6667 12.9999C18.6667 13.3681 18.3682 13.6666 18 13.6666H13.6667L13.6667 18C13.6667 18.3682 13.3682 18.6666 13 18.6666C12.6319 18.6666 12.3334 18.3682 12.3334 18L12.3327 13.6666H8.00004C7.63185 13.6666 7.33337 13.3681 7.33337 12.9999C7.33337 12.6317 7.63185 12.3333 8.00004 12.3333H12.3327L12.3334 7.99992C12.3334 7.63173 12.6319 7.33325 13 7.33325Z" fill="white"/>
</svg>
