<svg width="42" height="42" viewBox="0 0 42 42" fill="none" xmlns="http://www.w3.org/2000/svg">
<rect width="42" height="42" rx="12" fill="#66CBC0" fill-opacity="0.1"/>
<path d="M16.8914 21.5579H25.1087" stroke="#66CBC0" stroke-width="1.8" stroke-miterlimit="10"/>
<path d="M15.0651 15.1667H16.8912V27.9494H15.0651C14.0608 27.9494 13.239 27.1276 13.239 26.1233V16.9928C13.239 15.9885 14.0608 15.1667 15.0651 15.1667Z" stroke="#66CBC0" stroke-width="1.8" stroke-miterlimit="10"/>
<path d="M25.1086 15.1667H26.9347C27.9391 15.1667 28.7608 15.9885 28.7608 16.9928V26.1233C28.7608 27.1276 27.9391 27.9494 26.9347 27.9494H25.1086V15.1667Z" stroke="#66CBC0" stroke-width="1.8" stroke-miterlimit="10"/>
<path d="M28.761 17.9058H29.674C30.6784 17.9058 31.5001 18.7275 31.5001 19.7318V23.384C31.5001 24.3884 30.6784 25.2101 29.674 25.2101H28.761V17.9058Z" stroke="#66CBC0" stroke-width="1.8" stroke-miterlimit="10"/>
<path d="M12.3261 17.9058H13.2391V25.2101H12.3261C11.3217 25.2101 10.5 24.3884 10.5 23.384V19.7318C10.5 18.7275 11.3217 17.9058 12.3261 17.9058Z" stroke="#66CBC0" stroke-width="1.8" stroke-miterlimit="10"/>
</svg>
