<svg width="42" height="42" viewBox="0 0 42 42" fill="none" xmlns="http://www.w3.org/2000/svg">
<rect width="42" height="42" rx="12" fill="#3E7ACA" fill-opacity="0.1"/>
<path d="M17.0869 28.652C20.4486 28.652 23.1738 25.9268 23.1738 22.5652C23.1738 19.2035 20.4486 16.4783 17.0869 16.4783C13.7252 16.4783 11 19.2035 11 22.5652C11 25.9268 13.7252 28.652 17.0869 28.652Z" stroke="#3E7ACA" stroke-width="2" stroke-miterlimit="10"/>
<path d="M24.9131 28.652C28.2747 28.652 30.9999 25.9268 30.9999 22.5652C30.9999 19.2035 28.2747 16.4783 24.9131 16.4783C21.5514 16.4783 18.8262 19.2035 18.8262 22.5652C18.8262 25.9268 21.5514 28.652 24.9131 28.652Z" stroke="#3E7ACA" stroke-width="2" stroke-miterlimit="10"/>
<path d="M25.3477 16.4782H24.4781L22.739 14.7391L23.6086 13H26.2172L27.0868 14.7391L25.3477 16.4782Z" stroke="#3E7ACA" stroke-width="2" stroke-miterlimit="10"/>
</svg>
