<svg width="22" height="22" viewBox="0 0 22 22" fill="none" xmlns="http://www.w3.org/2000/svg">
<path d="M21 16.1542C21.5523 16.1542 22 16.6019 22 17.1542C22 18.5244 21.8663 19.2166 21.4811 19.9369C21.1265 20.6 20.6 21.1265 19.9369 21.4811C19.2166 21.8663 18.5244 22 17.1542 22C16.6019 22 16.1542 21.5523 16.1542 21C16.1542 20.4477 16.6019 20 17.1542 20L17.5719 19.9953C18.3313 19.9762 18.6586 19.8967 18.9937 19.7175C19.3083 19.5492 19.5492 19.3083 19.7175 18.9937C19.9266 18.6027 20 18.2224 20 17.1542C20 16.6019 20.4477 16.1542 21 16.1542ZM1 16.1542C1.55228 16.1542 2 16.6019 2 17.1542L2.00468 17.5719C2.02375 18.3313 2.10331 18.6586 2.28251 18.9937C2.45077 19.3083 2.69171 19.5492 3.00633 19.7175C3.39726 19.9266 3.77757 20 4.84583 20C5.39811 20 5.84583 20.4477 5.84583 21C5.84583 21.5523 5.39811 22 4.84583 22C3.47564 22 2.78342 21.8663 2.06313 21.4811C1.39998 21.1265 0.873546 20.6 0.518886 19.9369C0.133674 19.2166 0 18.5244 0 17.1542C0 16.6019 0.447715 16.1542 1 16.1542ZM17 12C17.5128 12 17.9355 12.386 17.9933 12.8834L18 13V14.4361C18 15.3999 17.9008 15.9134 17.6147 16.4484C17.3472 16.9486 16.9486 17.3472 16.4484 17.6147C15.958 17.877 15.4856 17.9822 14.668 17.9979L14.4361 18H7.56388C6.6001 18 6.08664 17.9008 5.55156 17.6147C5.05136 17.3472 4.65283 16.9486 4.38532 16.4484C4.123 15.958 4.01782 15.4856 4.00212 14.668L4 14.4361V13C4 12.4477 4.44772 12 5 12C5.51284 12 5.93551 12.386 5.99327 12.8834L6 13L6.00099 14.6056C6.00692 15.0759 6.04018 15.2732 6.11775 15.4426L6.14895 15.5052C6.23005 15.6569 6.3431 15.7699 6.49475 15.8511C6.68178 15.9511 6.86535 15.9923 7.39444 15.999L7.56388 16L14.6056 15.999C15.1346 15.9923 15.3182 15.9511 15.5052 15.8511C15.6569 15.7699 15.7699 15.6569 15.8511 15.5052C15.9511 15.3182 15.9923 15.1346 15.999 14.6056L16 14.4361V13C16 12.4477 16.4477 12 17 12ZM14.4361 4C15.3999 4 15.9134 4.09916 16.4484 4.38532C16.9486 4.65283 17.3472 5.05136 17.6147 5.55156C17.877 6.04205 17.9822 6.51438 17.9979 7.33205L18 7.56388V8H20C20.5523 8 21 8.44772 21 9C21 9.55228 20.5523 10 20 10H2C1.44772 10 1 9.55228 1 9C1 8.44772 1.44772 8 2 8H4V7.56388C4 6.68042 4.08332 6.17534 4.31762 5.68515L4.38532 5.55156C4.65283 5.05136 5.05136 4.65283 5.55156 4.38532C6.04205 4.123 6.51438 4.01782 7.33205 4.00212L7.56388 4H14.4361ZM14.6056 6.00099H7.39444C6.86535 6.00766 6.68178 6.04892 6.49475 6.14895C6.3431 6.23005 6.23005 6.3431 6.14895 6.49475C6.04892 6.68178 6.00766 6.86535 6.00099 7.39444L6 8H15.999L15.999 7.39444C15.9931 6.92414 15.9598 6.72684 15.8823 6.55745L15.8511 6.49475C15.7699 6.3431 15.6569 6.23005 15.5052 6.14895C15.3182 6.04892 15.1346 6.00766 14.6056 6.00099ZM4.84583 0C5.39811 0 5.84583 0.447715 5.84583 1C5.84583 1.55228 5.39811 2 4.84583 2L4.42808 2.00468C3.66869 2.02375 3.34141 2.10331 3.00633 2.28251C2.69171 2.45077 2.45077 2.69171 2.28251 3.00633C2.07344 3.39726 2 3.77757 2 4.84583C2 5.39811 1.55228 5.84583 1 5.84583C0.447715 5.84583 0 5.39811 0 4.84583C0 3.47564 0.133674 2.78342 0.518886 2.06313C0.873546 1.39998 1.39998 0.873546 2.06313 0.518886C2.78342 0.133674 3.47564 0 4.84583 0ZM17.1542 0C18.5244 0 19.2166 0.133674 19.9369 0.518886C20.6 0.873546 21.1265 1.39998 21.4811 2.06313C21.8663 2.78342 22 3.47564 22 4.84583C22 5.39811 21.5523 5.84583 21 5.84583C20.4477 5.84583 20 5.39811 20 4.84583L19.9953 4.42808C19.9762 3.66869 19.8967 3.34141 19.7175 3.00633C19.5492 2.69171 19.3083 2.45077 18.9937 2.28251C18.6027 2.07344 18.2224 2 17.1542 2C16.6019 2 16.1542 1.55228 16.1542 1C16.1542 0.447715 16.6019 0 17.1542 0Z" fill="#BF4040"/>
</svg>
