<svg width="24" height="25" viewBox="0 0 24 25" fill="none" xmlns="http://www.w3.org/2000/svg">
<path d="M20.3641 13.0561C20.8848 13.2401 21.1578 13.8114 20.9739 14.3321C19.7616 17.7633 16.6397 20.1739 13.0053 20.4694L13.0051 23C13.0051 23.555 12.5551 24.005 12.0001 24.005C11.445 24.005 10.9951 23.555 10.9951 23L10.9949 20.4694C7.3611 20.174 4.23947 17.7641 3.02681 14.3337C2.84274 13.813 3.11563 13.2416 3.63634 13.0576C4.15705 12.8735 4.72838 13.1464 4.91246 13.6671C5.928 16.5399 8.65282 18.5 11.7501 18.5H12.2501C15.3478 18.5 18.0729 16.5393 19.0881 13.6659C19.2721 13.1451 19.8434 12.8721 20.3641 13.0561ZM12.0001 2C14.7615 2 17.0001 4.23858 17.0001 7V11C17.0001 13.7614 14.7615 16 12.0001 16C9.23863 16 7.00006 13.7614 7.00006 11V7C7.00006 4.23858 9.23863 2 12.0001 2ZM12.0001 4.01C10.3487 4.01 9.01006 5.34867 9.01006 7V11C9.01006 12.6513 10.3487 13.99 12.0001 13.99C13.6514 13.99 14.9901 12.6513 14.9901 11V7C14.9901 5.34867 13.6514 4.01 12.0001 4.01Z" fill="#99A2AD"/>
</svg>
