<svg width="28" height="28" viewBox="0 0 28 28" fill="none" xmlns="http://www.w3.org/2000/svg">
<path opacity="0.25" d="M15.3675 18.051C15.5592 16.6511 16.6514 15.559 18.0513 15.3673C18.8542 15.2573 19.7263 15.1665 20.4167 15.1665C21.1072 15.1665 21.9793 15.2573 22.7822 15.3673C24.1821 15.559 25.2743 16.6511 25.466 18.051C25.5759 18.8539 25.6667 19.726 25.6667 20.4165C25.6667 21.107 25.5759 21.9791 25.466 22.782C25.2743 24.1819 24.1821 25.274 22.7822 25.4657C21.9793 25.5757 21.1072 25.6665 20.4167 25.6665C19.7263 25.6665 18.8542 25.5757 18.0513 25.4657C16.6514 25.274 15.5592 24.1819 15.3675 22.782C15.2576 21.9791 15.1667 21.107 15.1667 20.4165C15.1667 19.726 15.2576 18.8539 15.3675 18.051Z" fill="#99A2AD"/>
<path opacity="0.25" d="M2.53403 18.051C2.72575 16.6511 3.81788 15.559 5.21776 15.3673C6.02067 15.2573 6.89277 15.1665 7.58325 15.1665C8.27373 15.1665 9.14583 15.2573 9.94874 15.3673C11.3486 15.559 12.4408 16.6511 12.6325 18.051C12.7424 18.8539 12.8333 19.726 12.8333 20.4165C12.8333 21.107 12.7424 21.9791 12.6325 22.782C12.4408 24.1819 11.3486 25.274 9.94874 25.4657C9.14583 25.5757 8.27373 25.6665 7.58325 25.6665C6.89277 25.6665 6.02067 25.5757 5.21776 25.4657C3.81788 25.274 2.72575 24.1819 2.53403 22.782C2.42406 21.9791 2.33325 21.107 2.33325 20.4165C2.33325 19.726 2.42406 18.8539 2.53403 18.051Z" fill="#99A2AD"/>
<path opacity="0.25" d="M15.3675 5.218C15.5592 3.81812 16.6514 2.72599 18.0513 2.53427C18.8542 2.42431 19.7263 2.3335 20.4167 2.3335C21.1072 2.3335 21.9793 2.42431 22.7822 2.53427C24.1821 2.72599 25.2743 3.81812 25.466 5.218C25.5759 6.02092 25.6667 6.89302 25.6667 7.5835C25.6667 8.27397 25.5759 9.14608 25.466 9.94899C25.2743 11.3489 24.1821 12.441 22.7822 12.6327C21.9793 12.7427 21.1072 12.8335 20.4167 12.8335C19.7263 12.8335 18.8542 12.7427 18.0513 12.6327C16.6514 12.441 15.5592 11.3489 15.3675 9.94899C15.2576 9.14608 15.1667 8.27397 15.1667 7.5835C15.1667 6.89302 15.2576 6.02092 15.3675 5.218Z" fill="#99A2AD"/>
<path d="M2.53403 5.218C2.72575 3.81812 3.81788 2.72599 5.21776 2.53427C6.02067 2.42431 6.89277 2.3335 7.58325 2.3335C8.27373 2.3335 9.14583 2.42431 9.94874 2.53427C11.3486 2.72599 12.4408 3.81812 12.6325 5.218C12.7424 6.02092 12.8333 6.89302 12.8333 7.5835C12.8333 8.27397 12.7424 9.14608 12.6325 9.94899C12.4408 11.3489 11.3486 12.441 9.94874 12.6327C9.14583 12.7427 8.27373 12.8335 7.58325 12.8335C6.89277 12.8335 6.02067 12.7427 5.21776 12.6327C3.81788 12.441 2.72575 11.3489 2.53403 9.94899C2.42406 9.14608 2.33325 8.27397 2.33325 7.5835C2.33325 6.89302 2.42406 6.02092 2.53403 5.218Z" fill="#99A2AD"/>
</svg>
