<svg width="28" height="28" viewBox="0 0 28 28" fill="none" xmlns="http://www.w3.org/2000/svg">
<path opacity="0.25" d="M15.3674 18.0513C15.5591 16.6514 16.6512 15.5592 18.0511 15.3675C18.854 15.2576 19.7261 15.1667 20.4166 15.1667C21.1071 15.1667 21.9792 15.2576 22.7821 15.3675C24.182 15.5592 25.2741 16.6514 25.4659 18.0513C25.5758 18.8542 25.6666 19.7263 25.6666 20.4167C25.6666 21.1072 25.5758 21.9793 25.4659 22.7822C25.2741 24.1821 24.182 25.2743 22.7821 25.466C21.9792 25.5759 21.1071 25.6667 20.4166 25.6667C19.7261 25.6667 18.854 25.5759 18.0511 25.466C16.6512 25.2743 15.5591 24.1821 15.3674 22.7822C15.2574 21.9793 15.1666 21.1072 15.1666 20.4167C15.1666 19.7263 15.2574 18.8542 15.3674 18.0513Z" fill="#BF4040"/>
<path opacity="0.25" d="M2.53415 18.0513C2.72587 16.6514 3.818 15.5592 5.21788 15.3675C6.02079 15.2576 6.8929 15.1667 7.58337 15.1667C8.27385 15.1667 9.14595 15.2576 9.94886 15.3675C11.3488 15.5592 12.4409 16.6514 12.6326 18.0513C12.7426 18.8542 12.8334 19.7263 12.8334 20.4167C12.8334 21.1072 12.7426 21.9793 12.6326 22.7822C12.4409 24.1821 11.3488 25.2743 9.94886 25.466C9.14595 25.5759 8.27385 25.6667 7.58337 25.6667C6.8929 25.6667 6.02079 25.5759 5.21788 25.466C3.818 25.2743 2.72587 24.1821 2.53415 22.7822C2.42419 21.9793 2.33337 21.1072 2.33337 20.4167C2.33337 19.7263 2.42419 18.8542 2.53415 18.0513Z" fill="#BF4040"/>
<path opacity="0.25" d="M15.3674 5.21776C15.5591 3.81788 16.6512 2.72575 18.0511 2.53403C18.854 2.42406 19.7261 2.33325 20.4166 2.33325C21.1071 2.33325 21.9792 2.42406 22.7821 2.53403C24.182 2.72575 25.2741 3.81788 25.4659 5.21776C25.5758 6.02067 25.6666 6.89277 25.6666 7.58325C25.6666 8.27373 25.5758 9.14583 25.4659 9.94874C25.2741 11.3486 24.182 12.4408 22.7821 12.6325C21.9792 12.7424 21.1071 12.8333 20.4166 12.8333C19.7261 12.8333 18.854 12.7424 18.0511 12.6325C16.6512 12.4408 15.5591 11.3486 15.3674 9.94874C15.2574 9.14583 15.1666 8.27373 15.1666 7.58325C15.1666 6.89277 15.2574 6.02067 15.3674 5.21776Z" fill="#BF4040"/>
<path d="M2.53415 5.21776C2.72587 3.81788 3.818 2.72575 5.21788 2.53403C6.02079 2.42406 6.8929 2.33325 7.58337 2.33325C8.27385 2.33325 9.14595 2.42406 9.94886 2.53403C11.3488 2.72575 12.4409 3.81788 12.6326 5.21776C12.7426 6.02067 12.8334 6.89277 12.8334 7.58325C12.8334 8.27373 12.7426 9.14583 12.6326 9.94874C12.4409 11.3486 11.3488 12.4408 9.94886 12.6325C9.14595 12.7424 8.27385 12.8333 7.58337 12.8333C6.8929 12.8333 6.02079 12.7424 5.21788 12.6325C3.818 12.4408 2.72587 11.3486 2.53415 9.94874C2.42419 9.14583 2.33337 8.27373 2.33337 7.58325C2.33337 6.89277 2.42419 6.02067 2.53415 5.21776Z" fill="#BF4040"/>
</svg>
